<?xml version="1.0" encoding="utf-8"?>
<!-- Generator: Adobe Illustrator 19.2.0, SVG Export Plug-In . SVG Version: 6.00 Build 0)  -->
<svg version="1.1" id="Calque_1" xmlns="http://www.w3.org/2000/svg" xmlns:xlink="http://www.w3.org/1999/xlink" x="0px" y="0px"
	 viewBox="0 0 520 520" style="enable-background:new 0 0 520 520;" xml:space="preserve">
<style type="text/css">
	.st0{display:none;}
	.st1{display:inline;}
	.st2{fill:#8E8C8A;}
	.st3{fill:#FFFFFF;}
</style>
<g id="Calque_1_1_" class="st0">
	<g class="st1">
		<path class="st2" d="M260,0C116.4,0,0,116.4,0,260s116.4,260,260,260s260-116.4,260-260S403.6,0,260,0z M260,33.4
			c48.6,0,93.5,15.3,130.4,41.3c-32.7,0-61,22-61,22c-42.4,28.5-69.1,27-69.1,27s-27.6,1.5-70-27c0,0-28.1-21.9-60.7-22
			C166.5,48.8,211.4,33.4,260,33.4z M99.5,100.2c9.7-4.6,19.5-7.6,28.5-7.6c0,0,23.2,0,60.7,25.7c0,0,30.3,24.5,70.8,24.8l0,0
			c0.1,0,0.3,0,0.4,0s0.3,0,0.4,0l0,0c40.5-0.3,70.8-24.8,70.8-24.8c37.5-25.7,60.7-25.7,60.7-25.7c9.2,0,19.1,3.1,29,7.9
			c20.4,20.5,36.8,44.9,48.1,71.9l-0.4-0.4c-43-39.5-74.6-36.4-74.6-36.4c-34.1-1.7-64.5,21.9-64.5,21.9
			c-42.4,28.5-96.7,28.5-139.1,0c0,0-30.3-23.6-64.5-21.9c0,0-31.6-3.1-74.5,36.3C62.7,144.9,79.2,120.6,99.5,100.2z M245,420.2
			c-5.4,10.5-13,18.4-22.9,23.9s-22.5,8.3-37.9,8.3c-11.1,0-20.5-1.1-28.4-3.3c-7.9-2.2-14.6-5.5-20.1-9.8s-10-9.3-13.4-14.8
			s-6.3-12.4-8.6-20.6l48.4-5.7c0.6,1.9,1.4,3.7,2.3,5.3c0.8,1.8,1.6,2.9,3,4.2c4.2,4.8,10.2,7.8,16.9,7.8
			c12.9,0,23.3-11.3,23.3-25.1c0-9-4.4-16.9-11.1-21.4c-1.1-0.8-2-1.4-3-1.7c-2.8-1.3-6-2.1-9.2-2.1c-7.9,0-14.9,4.2-19.1,10.7
			l-45.3-1.6l14.6-100.5h105v43.3l-69.4-0.1l-4,22.1c5.2-2.6,10.3-4.5,15.4-5.7c5.1-1.3,10.1-1.9,15-1.9c16.8,0,30.4,5.3,40.8,15.9
			c10.4,10.6,15.7,24,15.7,40.1C253.1,398.9,250.4,409.8,245,420.2z M336.8,451.7c-45,0-69.5-38.8-69.5-90.4
			c0-48.8,25.5-87.2,69.5-87.2s69.5,38.3,69.5,87.2C406.3,412.9,381.8,451.7,336.8,451.7z M461.3,234.4c0,0-41.1-38-77.1-38
			c0,0-18.2-2.1-63,27.1c0,0-27.3,20.7-56.5,21.3h-9.4c-29.2-0.6-56.5-21.3-56.5-21.3c-44.8-29.2-63-27.1-63-27.1
			c-35.9,0-77.1,38-77.1,38c-17.7,18.7-25.4,21.3-25.4,21.3l0,0c0.3-17.6,2.7-34.7,6.9-51.1c1.9-1.9,51.2-51.4,87.6-51.4
			c0,0,23.2,0,60.7,25.7c0,0,30.3,24.5,70.8,24.8l0,0c0.1,0,0.3,0,0.4,0s0.3,0,0.4,0l0,0c40.5-0.3,70.8-24.8,70.8-24.8
			c37.5-25.7,60.7-25.7,60.7-25.7c37.1,0,87.7,51.5,87.7,51.5l0.1-0.4c4.2,16.5,6.6,33.6,6.9,51.3
			C485.2,255.1,477.4,251.5,461.3,234.4z"/>
		<path class="st2" d="M336.8,327.5c-15.8,0-18.9,21.2-18.9,35.4c0,13.2,4.1,37.9,18.9,37.9c14.9,0,18.9-24.7,18.9-37.9
			C355.7,348.7,352.6,327.5,336.8,327.5z"/>
	</g>
</g>
<g id="Calque_2" class="st0">
	<g class="st1">
		<path class="st2" d="M229,328.8c-16,0-19.1,21.4-19.1,35.7c0,13.4,4.1,38.2,19.1,38.2s19.1-24.9,19.1-38.2
			C248.1,350.2,245,328.8,229,328.8z"/>
		<path class="st2" d="M260,0C116.4,0,0,116.4,0,260s116.4,260,260,260s260-116.4,260-260S403.6,0,260,0z M260,33.4
			c48.6,0,93.5,15.3,130.4,41.3c-32.7,0-61,22-61,22c-42.4,28.5-69.1,27-69.1,27s-27.6,1.5-70-27c0,0-28.1-21.9-60.7-22
			C166.5,48.8,211.4,33.4,260,33.4z M99.5,100.2c9.7-4.6,19.5-7.6,28.5-7.6c0,0,23.2,0,60.7,25.7c0,0,30.3,24.5,70.8,24.8l0,0
			c0.1,0,0.3,0,0.4,0s0.3,0,0.4,0l0,0c40.5-0.3,70.8-24.8,70.8-24.8c37.5-25.7,60.7-25.7,60.7-25.7c9.2,0,19.1,3.1,29,7.9
			c20.4,20.5,36.8,44.9,48.1,71.9l-0.4-0.4c-43-39.5-74.6-36.4-74.6-36.4c-34.1-1.7-64.5,21.9-64.5,21.9
			c-42.4,28.5-96.7,28.5-139.1,0c0,0-30.3-23.6-64.5-21.9c0,0-31.6-3.1-74.5,36.3C62.7,144.9,79.2,120.6,99.5,100.2z M139.6,445.3
			H92.4V326.1l-20.1-0.9v-43l67.3-2.6V445.3z M229,454c-45.5,0-70.2-39.1-70.2-91.2c0-49.3,25.8-87.9,70.2-87.9s70.2,38.7,70.2,87.9
			C299.2,414.9,274.5,454,229,454z M377.5,454c-45.5,0-70.2-39.1-70.2-91.2c0-49.3,25.8-87.9,70.2-87.9c44.5,0,70.2,38.7,70.2,87.9
			C447.7,414.9,422.9,454,377.5,454z M461.3,234.4c0,0-41.1-38-77.1-38c0,0-18.2-2.1-63,27.1c0,0-27.3,20.7-56.5,21.3h-9.4
			c-29.2-0.6-56.5-21.3-56.5-21.3c-44.8-29.2-63-27.1-63-27.1c-35.9,0-77.1,38-77.1,38c-17.7,18.7-25.4,21.3-25.4,21.3l0,0
			c0.3-17.6,2.7-34.7,6.9-51.1c1.9-1.9,51.2-51.4,87.6-51.4c0,0,23.2,0,60.7,25.7c0,0,30.3,24.5,70.8,24.8l0,0c0.1,0,0.3,0,0.4,0
			s0.3,0,0.4,0l0,0c40.5-0.3,70.8-24.8,70.8-24.8c37.5-25.7,60.7-25.7,60.7-25.7c37.1,0,87.7,51.5,87.7,51.5l0.1-0.4
			c4.2,16.5,6.6,33.6,6.9,51.3C485.2,255.1,477.4,251.5,461.3,234.4z"/>
		<path class="st2" d="M377.5,328.8c-16,0-19.1,21.4-19.1,35.7c0,13.4,4.1,38.2,19.1,38.2s19.1-24.9,19.1-38.2
			C396.6,350.2,393.5,328.8,377.5,328.8z"/>
	</g>
</g>
<g id="Calque_3" class="st0">
	<g class="st1">
		<path class="st2" d="M257.5,311.4c-14.6,0-17.5,19.3-17.5,32.2c0,12.1,3.7,34.5,17.5,34.5c13.7,0,17.5-22.5,17.5-34.5
			C274.9,330.7,272.1,311.4,257.5,311.4z"/>
		<path class="st2" d="M260,0C116.4,0,0,116.4,0,260s116.4,260,260,260c65.4,0,125.2-24.2,170.9-64.1l0,0l0,0
			C485.5,408.3,520,338.2,520,260C520,116.4,403.6,0,260,0z M260,33.4c48.6,0,93.5,15.3,130.4,41.3c-32.7,0-61,22-61,22
			c-42.4,28.5-69.1,27-69.1,27s-27.6,1.5-70-27c0,0-28.1-21.9-60.7-22C166.5,48.8,211.4,33.4,260,33.4z M99.5,100.2
			c9.7-4.6,19.5-7.6,28.5-7.6c0,0,23.2,0,60.7,25.7c0,0,30.3,24.5,70.8,24.8l0,0c0.1,0,0.3,0,0.4,0s0.3,0,0.4,0l0,0
			c40.5-0.3,70.8-24.8,70.8-24.8c37.5-25.7,60.7-25.7,60.7-25.7c9.2,0,19.1,3.1,29,7.9c20.4,20.5,36.8,44.9,48.1,71.9l-0.4-0.4
			c-43-39.5-74.6-36.4-74.6-36.4c-34.1-1.7-64.5,21.9-64.5,21.9c-42.4,28.5-96.7,28.5-139.1,0c0,0-30.3-23.6-64.5-21.9
			c0,0-31.6-3.1-74.5,36.3C62.7,144.9,79.2,120.6,99.5,100.2z M189.3,417.5H63.4l57.4-66.1c8.2-8.7,19.3-20.2,19.3-34.1
			c0-7.1-4.9-12.5-10.8-12.5c-10.1,0-11.3,10.2-11.7,19.8H70.9c3.5-45.7,20.6-66.3,60.1-66.3c27.4,0,56.3,18.9,56.3,55.3
			c0,31.6-15,42.3-37.7,63.8l-8.5,7.3l22.5,0.2l25.6-0.2L189.3,417.5L189.3,417.5z M257.5,424.5c-41.6,0-64.2-35.4-64.2-82.4
			c0-44.5,23.5-79.4,64.2-79.4s64.2,34.9,64.2,79.4C321.7,389.1,299,424.5,257.5,424.5z M392.4,424.5c-41.6,0-64.2-35.4-64.2-82.4
			c0-44.5,23.5-79.4,64.2-79.4s64.2,34.9,64.2,79.4C456.6,389.1,434,424.5,392.4,424.5z M461.3,234.4c0,0-41.1-38-77.1-38
			c0,0-18.2-2.1-63,27.1c0,0-27.3,20.7-56.5,21.3h-9.4c-29.2-0.6-56.5-21.3-56.5-21.3c-44.8-29.2-63-27.1-63-27.1
			c-35.9,0-77.1,38-77.1,38c-17.7,18.7-25.4,21.3-25.4,21.3l0,0c0.3-17.6,2.7-34.7,6.9-51.1c1.9-1.9,51.2-51.4,87.6-51.4
			c0,0,23.2,0,60.7,25.7c0,0,30.3,24.5,70.8,24.8l0,0c0.1,0,0.3,0,0.4,0s0.3,0,0.4,0l0,0c40.5-0.3,70.8-24.8,70.8-24.8
			c37.5-25.7,60.7-25.7,60.7-25.7c37.1,0,87.7,51.5,87.7,51.5l0.1-0.4c4.2,16.5,6.6,33.6,6.9,51.3
			C485.2,255.1,477.4,251.5,461.3,234.4z"/>
		<path class="st2" d="M392.4,311.4c-14.6,0-17.5,19.3-17.5,32.2c0,12.1,3.7,34.5,17.5,34.5s17.5-22.5,17.5-34.5
			C409.9,330.7,407,311.4,392.4,311.4z"/>
	</g>
</g>
<g id="Calque_4" class="st0">
	<g class="st1">
		<path class="st2" d="M260.2,312.6c-14.8,0-17.7,19.6-17.7,32.6c0,12.2,3.8,34.9,17.7,34.9s17.7-22.7,17.7-34.9
			C277.9,332.1,275,312.6,260.2,312.6z"/>
		<path class="st2" d="M260,0C116.4,0,0,116.4,0,260s116.4,260,260,260c65.4,0,125.2-24.2,170.9-64.1l0,0l0,0
			c10.8-9.4,20.7-19.7,29.8-30.7l0,0l0,0c37-44.9,59.2-102.4,59.2-165.2C520,116.4,403.6,0,260,0z M260,33.4
			c48.6,0,93.5,15.3,130.4,41.3c-32.7,0-61,22-61,22c-42.4,28.5-69.1,27-69.1,27s-27.6,1.5-70-27c0,0-28.1-21.9-60.7-22
			C166.5,48.8,211.4,33.4,260,33.4z M99.5,100.2c9.7-4.6,19.5-7.6,28.5-7.6c0,0,23.2,0,60.7,25.7c0,0,30.3,24.5,70.8,24.8l0,0
			c0.1,0,0.3,0,0.4,0s0.3,0,0.4,0l0,0c40.5-0.3,70.8-24.8,70.8-24.8c37.5-25.7,60.7-25.7,60.7-25.7c9.2,0,19.1,3.1,29,7.9
			c20.4,20.5,36.8,44.9,48.1,71.9l-0.4-0.4c-43-39.5-74.6-36.4-74.6-36.4c-34.1-1.7-64.5,21.9-64.5,21.9
			c-42.4,28.5-96.7,28.5-139.1,0c0,0-30.3-23.6-64.5-21.9c0,0-31.6-3.1-74.5,36.3C62.7,144.9,79.2,120.6,99.5,100.2z M120.8,426.4
			c-32,0-60.7-14.7-62.3-57.8h48c-0.3,9.4,5.6,17.8,13.6,17.8c6.4,0,12.9-6.5,12.9-14.4c0-8-5.6-14.7-12-14.7
			c-2.3,0-4.3,0.4-6.4,0.8v-32.9l3.8,0.4c5.2,0.6,9.9-4.8,9.9-11.3s-4-10.5-9.2-10.5c-5.4,0-8.9,5.9-8.3,12.1h-47
			c3-39.6,26.8-52.6,56.7-52.6c22.1,0,54.1,12.4,54.1,45.2c0,13-6.1,25.3-16.2,30.6v1.3c13.7,4.2,21.7,18.8,21.7,35.6
			C180.1,414.4,146.7,426.4,120.8,426.4z M260.2,427c-42.1,0-65.1-35.8-65.1-83.3c0-45,23.9-80.3,65.1-80.3s65.1,35.3,65.1,80.3
			C325.3,391.2,302.3,427,260.2,427z M396.4,427c-42.1,0-65.1-35.8-65.1-83.3c0-45,23.9-80.3,65.1-80.3s65.1,35.3,65.1,80.3
			C461.5,391.2,438.5,427,396.4,427z M461.3,234.4c0,0-41.1-38-77.1-38c0,0-18.2-2.1-63,27.1c0,0-27.3,20.7-56.5,21.3h-9.4
			c-29.2-0.6-56.5-21.3-56.5-21.3c-44.8-29.2-63-27.1-63-27.1c-35.9,0-77.1,38-77.1,38c-17.7,18.7-25.4,21.3-25.4,21.3l0,0
			c0.3-17.6,2.7-34.7,6.9-51.1c1.9-1.9,51.2-51.4,87.6-51.4c0,0,23.2,0,60.7,25.7c0,0,30.3,24.5,70.8,24.8l0,0c0.1,0,0.3,0,0.4,0
			s0.3,0,0.4,0l0,0c40.5-0.3,70.8-24.8,70.8-24.8c37.5-25.7,60.7-25.7,60.7-25.7c37.1,0,87.7,51.5,87.7,51.5l0.1-0.4
			c4.2,16.5,6.6,33.6,6.9,51.3C485.2,255.1,477.4,251.5,461.3,234.4z"/>
		<path class="st2" d="M396.4,312.6c-14.8,0-17.7,19.6-17.7,32.6c0,12.2,3.8,34.9,17.7,34.9c13.9,0,17.7-22.7,17.7-34.9
			C414.1,332.1,411.2,312.6,396.4,312.6z"/>
	</g>
</g>
<g id="Calque_5" class="st0">
	<g class="st1">
		<path class="st2" d="M261.1,312.2c-14.6,0-17.4,19.3-17.4,32.1c0,12,3.7,34.4,17.4,34.4c13.7,0,17.4-22.4,17.4-34.4
			C278.5,331.5,275.7,312.2,261.1,312.2z"/>
		<path class="st2" d="M260,0C116.4,0,0,116.4,0,260s116.4,260,260,260c65.4,0,125.2-24.2,170.9-64.1l0,0l0,0
			c10.8-9.4,20.7-19.7,29.8-30.7l0,0l0,0c37-44.9,59.2-102.4,59.2-165.2C520,116.4,403.6,0,260,0z M260,33.4
			c48.6,0,93.5,15.3,130.4,41.3c-32.7,0-61,22-61,22c-42.4,28.5-69.1,27-69.1,27s-27.6,1.5-70-27c0,0-28.1-21.9-60.7-22
			C166.5,48.8,211.4,33.4,260,33.4z M99.5,100.2c9.7-4.6,19.5-7.6,28.5-7.6c0,0,23.2,0,60.7,25.7c0,0,30.3,24.5,70.8,24.8l0,0
			c0.1,0,0.3,0,0.4,0s0.3,0,0.4,0l0,0c40.5-0.3,70.8-24.8,70.8-24.8c37.5-25.7,60.7-25.7,60.7-25.7c9.2,0,19.1,3.1,29,7.9
			c20.4,20.5,36.8,44.9,48.1,71.9l-0.4-0.4c-43-39.5-74.6-36.4-74.6-36.4c-34.1-1.7-64.5,21.9-64.5,21.9
			c-42.4,28.5-96.7,28.5-139.1,0c0,0-30.3-23.6-64.5-21.9c0,0-31.6-3.1-74.5,36.3C62.7,144.9,79.2,120.6,99.5,100.2z M177.8,397.6
			c-4.8,9.5-11.7,16.8-20.6,21.8c-8.9,5-20.3,7.5-34.2,7.5c-10,0-18.5-1-25.6-3s-13.2-5-18.2-8.9c-5-4-9-8.5-12.1-13.5
			s-5.7-12.6-7.7-20L100,377c3,8.3,10.7,14.2,19.7,14.2c11.7,0,21.1-9.9,21.1-22.2c0-12.2-9.5-22.2-21.1-22.2
			c-7.1,0-13.4,3.7-17.2,9.3l-38.4-1.4l14.1-90.6h95.1l-0.7,38.7H110l-3.1,20.8c4.7-2.3,9.3-4.1,13.9-5.2c4.6-1.2,9.1-1.7,13.6-1.7
			c15.1,0,27.4,4.8,36.8,14.5c9.4,9.7,14.1,21.9,14.1,36.5C185.1,378.1,182.7,388,177.8,397.6z M261.1,424.8
			c-41.4,0-63.9-35.2-63.9-82c0-44.3,23.4-79.1,63.9-79.1s63.9,34.8,63.9,79.1C325,389.6,302.5,424.8,261.1,424.8z M396.8,425.9
			c-41.4,0-63.9-35.2-63.9-82c0-44.3,23.4-79.1,63.9-79.1s63.9,34.8,63.9,79.1C460.6,390.7,438.1,425.9,396.8,425.9z M461.3,234.4
			c0,0-41.1-38-77.1-38c0,0-18.2-2.1-63,27.1c0,0-27.3,20.7-56.5,21.3h-9.4c-29.2-0.6-56.5-21.3-56.5-21.3
			c-44.8-29.2-63-27.1-63-27.1c-35.9,0-77.1,38-77.1,38c-17.7,18.7-25.4,21.3-25.4,21.3l0,0c0.3-17.6,2.7-34.7,6.9-51.1
			c1.9-1.9,51.2-51.4,87.6-51.4c0,0,23.2,0,60.7,25.7c0,0,30.3,24.5,70.8,24.8l0,0c0.1,0,0.3,0,0.4,0s0.3,0,0.4,0l0,0
			c40.5-0.3,70.8-24.8,70.8-24.8c37.5-25.7,60.7-25.7,60.7-25.7c37.1,0,87.7,51.5,87.7,51.5l0.1-0.4c4.2,16.5,6.6,33.6,6.9,51.3
			C485.2,255.1,477.4,251.5,461.3,234.4z"/>
		<path class="st2" d="M396.8,313.2c-14.6,0-17.4,19.3-17.4,32.1c0,12,3.7,34.4,17.4,34.4c13.7,0,17.4-22.4,17.4-34.4
			C414.1,332.5,411.3,313.2,396.8,313.2z"/>
	</g>
</g>
<g id="Calque_6" class="st0">
	<g class="st1">
		<path class="st2" d="M37.4,246.2c13.7,3.7,27,2.3,39-5.4c11.3-7.2,19.5-18.2,23-31.1c2-7.5,1.7-13.7,1.4-22.4L72,179.5
			c4.7,6.7,6.3,15.5,4.2,23.4c-4,15-17.3,22.2-31.9,18.3c-14.4-3.9-23-16.8-19-31.6c2.2-8.2,7.9-15.2,15.9-18.4l-28.8-7.8
			c-4.9,6.3-8.5,13-10.6,20.7c-3.5,13-1.4,27.7,5.5,39.2C13.9,234.8,24.7,242.8,37.4,246.2z"/>
		<path class="st2" d="M120.1,163.1l-7.2-16.4l24.2-24.4l16.2,7.3l18.7-18.9L78.5,69L59.4,88.3l42.1,93.6L120.1,163.1z M90,99.5
			l28.8,14.3l-14.6,14.7L89.8,99.7L90,99.5z"/>
		<polygon class="st2" points="231.9,95.1 225,75.1 196.8,84.8 172.6,14.1 149,22.2 180.1,112.8 		"/>
		
			<rect x="243.8" y="0.4" transform="matrix(1 -3.678790e-03 3.678790e-03 1 -0.176 0.943)" class="st2" width="24.9" height="95.8"/>
		<path class="st2" d="M363.1,96.2c4.8-12.5,2.7-23.2-9.5-29.8l0.1-0.2c8.6-0.9,13.8-6.4,16.9-14.5c6.6-17.1-1.7-27.4-17.6-33.5
			L319.7,5.5l-34.4,89.4l35.8,13.8C337.5,115,355.9,115,363.1,96.2z M336.1,32.2l1.7,0.6c6.3,2.4,13.3,5.7,10.2,13.9
			c-2.9,7.6-9.7,6.2-15.9,3.8l-2.6-1L336.1,32.2z M315.4,86.1l7.4-19.2l2.4,0.9c7.6,2.9,19.5,6.3,15.3,17.1
			c-3.8,9.8-15.3,5-22.2,2.4L315.4,86.1z"/>
		<path class="st2" d="M376.9,145.5l27.6-24.5l0.2,0.2l-11.9,42.1l20.6,23.2l9.4-48.6c10.8,8.6,24.3,6.5,34.2-2.3
			c15.3-13.6,12.5-30.3-0.1-44.5L432,63.2l-71.6,63.6L376.9,145.5z M434.3,94.5l1.6,1.8c5.4,6.1,10.3,13.9,2.5,20.9
			c-7.8,6.9-15,1.1-20.4-5l-1.6-1.8L434.3,94.5z"/>
		<polygon class="st2" points="427.6,247.2 448,241.6 440.1,213 456,208.6 463.5,235.7 483.8,230.1 476.4,203.1 491.8,198.8 
			499.7,227.3 520,221.8 505.5,169.2 413.2,194.6 		"/>
		<path class="st2" d="M129.8,356.8c3.9,0,7-1.3,9.5-3.8s3.7-5.8,3.7-9.8c0-4.2-1.3-7.6-3.9-10.2c-2.6-2.6-5.9-3.9-9.9-3.9
			c-4.1,0-7.4,1.3-10,3.8c-2.6,2.6-3.8,5.9-3.8,10c0,4.2,1.3,7.6,3.9,10.1C122,355.5,125.5,356.8,129.8,356.8z"/>
		<path class="st2" d="M253.1,334.5h-16.8v25.1h16.1c1.7,0,5.1-0.6,10.1-1.7c2.5-0.5,4.6-1.8,6.2-3.9s2.4-4.5,2.4-7.2
			c0-4-1.3-7.1-3.8-9.2C264.9,335.5,260.1,334.5,253.1,334.5z"/>
		<path class="st2" d="M129.2,376.7c-4.2,0-7.8,1.7-11,5c-3.1,3.3-4.7,7.8-4.7,13.4c0,5.3,1.6,9.7,4.9,13.1s7,5.1,11.2,5.1
			c4,0,7.6-1.7,10.8-5.2c3.2-3.4,4.8-7.8,4.8-13.1c0-5.3-1.6-9.7-4.8-13.2C137.2,378.4,133.5,376.7,129.2,376.7z"/>
		<path class="st2" d="M372.4,266.9c0.3-40.4-20.4-79.8-57.9-101.5c-55.5-32.1-126.6-13.2-158.7,42.3
			c-10.8,18.7-15.7,39.2-15.5,59.3v3.4H5.7C6.6,356.3,51.2,439.6,131,485.8c120.2,69.6,274.2,28.6,343.8-91.7
			c22.6-39,33.2-81.4,33.6-123.5h-136V266.9z M174.9,413.3c-2.8,5.3-6.2,9.3-10.3,12.2c-4.1,2.9-9.1,5-15.1,6.3s-12.5,2-19.3,2
			c-12.8,0-22.7-1.5-29.4-4.5c-6.8-3-11.9-7.5-15.5-13.4c-3.5-5.9-5.3-12.5-5.3-19.8c0-7.1,1.7-13.1,5-18.1
			c3.3-4.9,8.4-8.8,15.3-11.5c-5.3-2.8-9.2-6-11.6-9.4c-3.3-4.7-5-10.2-5-16.4c0-10.1,4.8-18.4,14.3-24.9c7.4-5,17.3-7.4,29.5-7.4
			c16.2,0,28.2,3.1,35.9,9.3c7.7,6.2,11.6,13.9,11.6,23.3c0,5.5-1.5,10.6-4.6,15.3c-2.3,3.5-6,6.9-10.9,10.3
			c6.6,3.1,11.5,7.3,14.7,12.5s4.8,10.9,4.8,17.2C179.1,402.4,177.7,408.1,174.9,413.3z M276.4,433.1L256,395.3
			c-2.6-4.9-4.9-8.1-6.9-9.5c-2.8-1.9-5.9-2.9-9.4-2.9h-3.4v50.2H198V309.5h63.7c11.8,0,20.8,1,27.1,3c6.2,2,11.3,5.8,15.1,11.3
			c3.8,5.5,5.7,12.2,5.7,20c0,6.9-1.5,12.8-4.4,17.8s-6.9,9-12.1,12.1c-3.3,2-7.7,3.6-13.4,4.9c4.5,1.5,7.9,3,9.9,4.6
			c1.4,1,3.4,3.2,6.1,6.5s4.5,5.9,5.4,7.7l18.5,35.8L276.4,433.1L276.4,433.1z M379.9,309.4c15.6,0,27.4,2.9,35.6,8.7
			c8.2,5.8,13,15,14.6,27.6l-35.5,2.1c-0.9-5.5-2.9-9.5-5.9-12s-7.2-3.7-12.5-3.7c-4.4,0-7.7,0.9-9.9,2.8c-2.2,1.9-3.3,4.1-3.3,6.8
			c0,1.9,0.9,3.7,2.7,5.2c1.8,1.6,6,3.1,12.6,4.5c16.4,3.5,28.2,7.1,35.3,10.8c7.1,3.6,12.3,8.1,15.5,13.5s4.9,11.4,4.9,18
			c0,7.8-2.2,15-6.5,21.6s-10.4,11.6-18.1,15c-7.8,3.4-17.5,5.1-29.3,5.1c-20.7,0-35-4-43-12s-12.5-18.1-13.5-30.4l35.8-2.2
			c0.8,5.8,2.4,10.2,4.7,13.3c3.9,4.9,9.4,7.4,16.6,7.4c5.4,0,9.5-1.3,12.4-3.8s4.4-5.4,4.4-8.8c0-3.2-1.4-6-4.2-8.5
			c-2.8-2.5-9.2-4.8-19.3-7.1c-16.5-3.7-28.3-8.6-35.3-14.8c-7.1-6.1-10.6-14-10.6-23.5c0-6.3,1.8-12.2,5.4-17.7
			c3.6-5.6,9.1-9.9,16.4-13.1C357.2,311,367.2,309.4,379.9,309.4z"/>
	</g>
</g>
<g id="Calque_7" class="st0">
	<g class="st1">
		<g>
			<path class="st2" d="M37.4,246.2c13.7,3.7,27,2.3,39-5.4c11.3-7.2,19.5-18.2,23-31.1c2-7.5,1.7-13.7,1.4-22.4L72,179.5
				c4.7,6.7,6.3,15.5,4.2,23.4c-4,15-17.3,22.2-31.9,18.3c-14.4-3.9-23-16.8-19-31.6c2.2-8.2,7.9-15.2,15.9-18.4l-28.8-7.8
				c-4.9,6.3-8.5,13-10.6,20.7c-3.5,13-1.4,27.7,5.5,39.2C13.9,234.8,24.7,242.8,37.4,246.2z"/>
			<path class="st2" d="M120.1,163.1l-7.2-16.4l24.2-24.4l16.2,7.3l18.7-18.9L78.5,69L59.4,88.3l42.1,93.6L120.1,163.1z M90,99.5
				l28.8,14.3l-14.6,14.7L89.8,99.7L90,99.5z"/>
			<polygon class="st2" points="231.9,95.1 225,75.1 196.8,84.8 172.6,14.1 149,22.2 180.1,112.8 			"/>
			
				<rect x="243.8" y="0.4" transform="matrix(1 -3.678790e-03 3.678790e-03 1 -0.176 0.943)" class="st2" width="24.9" height="95.8"/>
			<path class="st2" d="M363.1,96.2c4.8-12.5,2.7-23.2-9.5-29.8l0.1-0.2c8.6-0.9,13.8-6.4,16.9-14.5c6.6-17.1-1.7-27.4-17.6-33.5
				L319.7,5.5l-34.4,89.4l35.8,13.8C337.5,115,355.9,115,363.1,96.2z M336.1,32.2l1.7,0.6c6.3,2.4,13.3,5.7,10.2,13.9
				c-2.9,7.6-9.7,6.2-15.9,3.8l-2.6-1L336.1,32.2z M315.4,86.1l7.4-19.2l2.4,0.9c7.6,2.9,19.5,6.3,15.3,17.1
				c-3.8,9.8-15.3,5-22.2,2.4L315.4,86.1z"/>
			<path class="st2" d="M376.9,145.5l27.6-24.5l0.2,0.2l-11.9,42.1l20.6,23.2l9.4-48.6c10.8,8.6,24.3,6.5,34.2-2.3
				c15.3-13.6,12.5-30.3-0.1-44.5L432,63.2l-71.6,63.6L376.9,145.5z M434.3,94.5l1.6,1.8c5.4,6.1,10.3,13.9,2.5,20.9
				c-7.8,6.9-15,1.1-20.4-5l-1.6-1.8L434.3,94.5z"/>
			<polygon class="st2" points="427.6,247.2 448,241.6 440.1,213 456,208.6 463.5,235.7 483.8,230.1 476.4,203.1 491.8,198.8 
				499.7,227.3 520,221.8 505.5,169.2 413.2,194.6 			"/>
			<path class="st2" d="M372.4,266.9c0.3-40.4-20.4-79.8-57.9-101.5c-55.5-32.1-126.6-13.2-158.7,42.3
				c-10.8,18.7-15.7,39.2-15.5,59.3v3.4H5.7C6.6,356.3,51.2,439.6,131,485.8c120.2,69.6,274.2,28.6,343.8-91.7
				c22.6-39,33.2-81.4,33.6-123.5h-136V266.9z"/>
		</g>
		<g>
			<path class="st3" d="M259.9,309.2c38.5,0,56.9,18.2,56.9,38.5c0,14.5-8.7,26.4-22,29.5v0.4c15.5,1.6,27.6,13.5,27.6,30.9
				c0,33.3-34.1,44.4-62.5,44.4c-30.3,0-62.3-10.3-62.3-44.4c0-24,18-29,28-30.9v-0.4c-14.9-4-21.8-14.3-21.8-29.5
				C203.8,316.8,236.7,309.2,259.9,309.2z M259.9,423.8c9.9,0,22.6-3.4,22.6-15.5c0-13.5-10.1-18.2-22.2-18.2
				c-11.7,0-22.8,4-22.8,18.2C237.5,420.3,249.8,423.8,259.9,423.8z M259.7,366.5c9.9,0,21.2-3,21.2-14.7c0-13.3-10.5-15.7-21-15.7
				s-20.2,3-20.2,15.7C239.7,362.8,250,366.5,259.7,366.5z"/>
		</g>
	</g>
</g>
<g id="Calque_8" class="st0">
	<g class="st1">
		<g>
			<path class="st2" d="M37.4,246.2c13.7,3.7,27,2.3,39-5.4c11.3-7.2,19.5-18.2,23-31.1c2-7.5,1.7-13.7,1.4-22.4L72,179.5
				c4.7,6.7,6.3,15.5,4.2,23.4c-4,15-17.3,22.2-31.9,18.3c-14.4-3.9-23-16.8-19-31.6c2.2-8.2,7.9-15.2,15.9-18.4l-28.8-7.8
				c-4.9,6.3-8.5,13-10.6,20.7c-3.5,13-1.4,27.7,5.5,39.2C13.9,234.8,24.7,242.8,37.4,246.2z"/>
			<path class="st2" d="M120.1,163.1l-7.2-16.4l24.2-24.4l16.2,7.3l18.7-18.9L78.5,69L59.4,88.3l42.1,93.6L120.1,163.1z M90,99.5
				l28.8,14.3l-14.6,14.7L89.8,99.7L90,99.5z"/>
			<polygon class="st2" points="231.9,95.1 225,75.1 196.8,84.8 172.6,14.1 149,22.2 180.1,112.8 			"/>
			
				<rect x="243.8" y="0.4" transform="matrix(1 -3.678790e-03 3.678790e-03 1 -0.176 0.943)" class="st2" width="24.9" height="95.8"/>
			<path class="st2" d="M363.1,96.2c4.8-12.5,2.7-23.2-9.5-29.8l0.1-0.2c8.6-0.9,13.8-6.4,16.9-14.5c6.6-17.1-1.7-27.4-17.6-33.5
				L319.7,5.5l-34.4,89.4l35.8,13.8C337.5,115,355.9,115,363.1,96.2z M336.1,32.2l1.7,0.6c6.3,2.4,13.3,5.7,10.2,13.9
				c-2.9,7.6-9.7,6.2-15.9,3.8l-2.6-1L336.1,32.2z M315.4,86.1l7.4-19.2l2.4,0.9c7.6,2.9,19.5,6.3,15.3,17.1
				c-3.8,9.8-15.3,5-22.2,2.4L315.4,86.1z"/>
			<path class="st2" d="M376.9,145.5l27.6-24.5l0.2,0.2l-11.9,42.1l20.6,23.2l9.4-48.6c10.8,8.6,24.3,6.5,34.2-2.3
				c15.3-13.6,12.5-30.3-0.1-44.5L432,63.2l-71.6,63.6L376.9,145.5z M434.3,94.5l1.6,1.8c5.4,6.1,10.3,13.9,2.5,20.9
				c-7.8,6.9-15,1.1-20.4-5l-1.6-1.8L434.3,94.5z"/>
			<polygon class="st2" points="427.6,247.2 448,241.6 440.1,213 456,208.6 463.5,235.7 483.8,230.1 476.4,203.1 491.8,198.8 
				499.7,227.3 520,221.8 505.5,169.2 413.2,194.6 			"/>
			<path class="st2" d="M372.4,266.9c0.3-40.4-20.4-79.8-57.9-101.5c-55.5-32.1-126.6-13.2-158.7,42.3
				c-10.8,18.7-15.7,39.2-15.5,59.3v3.4H5.7C6.6,356.3,51.2,439.6,131,485.8c120.2,69.6,274.2,28.6,343.8-91.7
				c22.6-39,33.2-81.4,33.6-123.5h-136V266.9z"/>
		</g>
		<g>
			<path class="st3" d="M320.4,342.9c-36.9,34.1-45.7,79.6-45.3,115.2h-47.7c-0.4,0,1.3-48.1,30.6-89.9
				c14.2-21.1,18.5-23.5,18.3-23.5h-71.8V308h115.8v34.9H320.4z"/>
		</g>
	</g>
</g>
<g id="Calque_9" class="st0">
	<g class="st1">
		<path class="st2" d="M37.4,246.2c13.7,3.7,27,2.3,39-5.4c11.3-7.2,19.5-18.2,23-31.1c2-7.5,1.7-13.7,1.4-22.4L72,179.5
			c4.7,6.7,6.3,15.5,4.2,23.4c-4,15-17.3,22.2-31.9,18.3c-14.4-3.9-23-16.8-19-31.6c2.2-8.2,7.9-15.2,15.9-18.4l-28.8-7.8
			c-4.9,6.3-8.5,13-10.6,20.7c-3.5,13-1.4,27.7,5.5,39.2C13.9,234.8,24.7,242.8,37.4,246.2z"/>
		<path class="st2" d="M120.1,163.1l-7.2-16.4l24.2-24.4l16.2,7.3l18.7-18.9L78.5,69L59.4,88.3l42.1,93.6L120.1,163.1z M90,99.5
			l28.8,14.3l-14.6,14.7L89.8,99.7L90,99.5z"/>
		<polygon class="st2" points="231.9,95.1 225,75.1 196.8,84.8 172.6,14.1 149,22.2 180.1,112.8 		"/>
		
			<rect x="243.8" y="0.4" transform="matrix(1 -3.678790e-03 3.678790e-03 1 -0.176 0.943)" class="st2" width="24.9" height="95.8"/>
		<path class="st2" d="M363.1,96.2c4.8-12.5,2.7-23.2-9.5-29.8l0.1-0.2c8.6-0.9,13.8-6.4,16.9-14.5c6.6-17.1-1.7-27.4-17.6-33.5
			L319.7,5.5l-34.4,89.4l35.8,13.8C337.5,115,355.9,115,363.1,96.2z M336.1,32.2l1.7,0.6c6.3,2.4,13.3,5.7,10.2,13.9
			c-2.9,7.6-9.7,6.2-15.9,3.8l-2.6-1L336.1,32.2z M315.4,86.1l7.4-19.2l2.4,0.9c7.6,2.9,19.5,6.3,15.3,17.1
			c-3.8,9.8-15.3,5-22.2,2.4L315.4,86.1z"/>
		<path class="st2" d="M376.9,145.5l27.6-24.5l0.2,0.2l-11.9,42.1l20.6,23.2l9.4-48.6c10.8,8.6,24.3,6.5,34.2-2.3
			c15.3-13.6,12.5-30.3-0.1-44.5L432,63.2l-71.6,63.6L376.9,145.5z M434.3,94.5l1.6,1.8c5.4,6.1,10.3,13.9,2.5,20.9
			c-7.8,6.9-15,1.1-20.4-5l-1.6-1.8L434.3,94.5z"/>
		<polygon class="st2" points="427.6,247.2 448,241.6 440.1,213 456,208.6 463.5,235.7 483.8,230.1 476.4,203.1 491.8,198.8 
			499.7,227.3 520,221.8 505.5,169.2 413.2,194.6 		"/>
		<path class="st2" d="M132.5,372.8c-4.8,0-8.7,1.8-11.9,5.3c-3.2,3.5-4.8,8.5-4.8,15.1s1.7,11.9,5,15.6c3.4,3.8,7.5,5.7,12.3,5.7
			c4.5,0,8.2-1.7,11.2-5.1s4.5-8.5,4.5-15.3c0-6.9-1.6-12.2-4.7-15.8C141,374.7,137.2,372.8,132.5,372.8z"/>
		<path class="st2" d="M253.2,334.5h-16.8v25.1h16.1c1.7,0,5.1-0.6,10.1-1.7c2.5-0.5,4.6-1.8,6.2-3.9s2.4-4.5,2.4-7.2
			c0-4-1.3-7.1-3.8-9.2C264.9,335.5,260.2,334.5,253.2,334.5z"/>
		<path class="st2" d="M372.4,266.9c0.3-40.4-20.4-79.8-57.9-101.5c-55.5-32.1-126.6-13.2-158.7,42.3
			c-10.8,18.7-15.7,39.2-15.5,59.3v3.4H5.7C6.6,356.3,51.2,439.6,131,485.8c120.2,69.6,274.2,28.6,343.8-91.7
			c22.6-39,33.2-81.4,33.6-123.5h-136V266.9z M175.5,415.4c-3.8,6.7-9.1,11.8-15.9,15.2c-6.8,3.4-15.3,5.2-25.5,5.2
			c-12.3,0-22.2-2.1-29.6-6.3c-7.4-4.2-13.4-10.9-17.8-20.1c-4.4-9.2-6.7-21.4-6.7-36.5c0-22.2,4.7-38.4,14-48.7
			c9.3-10.3,22.3-15.5,38.8-15.5c9.8,0,17.5,1.1,23.2,3.4s10.4,5.6,14.1,9.9c3.7,4.4,6.6,9.8,8.6,16.4l-33.9,4.2
			c-0.9-4.8-2.4-8.1-4.5-10.1s-4.7-2.9-7.8-2.9c-5.5,0-9.8,2.8-12.9,8.4c-2.2,4-3.9,12.6-4.9,25.8c4.1-4.1,8.3-7.2,12.6-9.2
			s9.3-3,14.9-3c11,0,20.2,3.9,27.8,11.7c7.6,7.8,11.4,17.7,11.4,29.8C181.2,401.3,179.3,408.7,175.5,415.4z M276.5,433.1
			l-20.4-37.8c-2.6-4.9-4.9-8.1-6.9-9.5c-2.8-1.9-5.9-2.9-9.4-2.9h-3.4v50.2H198V309.5h63.7c11.8,0,20.8,1,27.1,3
			c6.2,2,11.3,5.8,15.1,11.3c3.8,5.5,5.7,12.2,5.7,20c0,6.9-1.5,12.8-4.4,17.8s-6.9,9-12.1,12.1c-3.3,2-7.7,3.6-13.4,4.9
			c4.5,1.5,7.9,3,9.9,4.6c1.4,1,3.4,3.2,6.1,6.5s4.5,5.9,5.4,7.7l18.5,35.8L276.5,433.1L276.5,433.1z M380,309.4
			c15.6,0,27.4,2.9,35.6,8.7c8.2,5.8,13,15,14.6,27.6l-35.5,2.1c-0.9-5.5-2.9-9.5-5.9-12s-7.2-3.7-12.5-3.7c-4.4,0-7.7,0.9-9.9,2.8
			c-2.2,1.9-3.3,4.1-3.3,6.8c0,1.9,0.9,3.7,2.7,5.2c1.8,1.6,6,3.1,12.6,4.5c16.4,3.5,28.2,7.1,35.3,10.8c7.1,3.6,12.3,8.1,15.5,13.5
			s4.9,11.4,4.9,18c0,7.8-2.2,15-6.5,21.6s-10.4,11.6-18.1,15c-7.8,3.4-17.5,5.1-29.3,5.1c-20.7,0-35-4-43-12s-12.5-18.1-13.5-30.4
			l35.8-2.2c0.8,5.8,2.4,10.2,4.7,13.3c3.9,4.9,9.4,7.4,16.6,7.4c5.4,0,9.5-1.3,12.4-3.8s4.4-5.4,4.4-8.8c0-3.2-1.4-6-4.2-8.5
			c-2.8-2.5-9.2-4.8-19.3-7.1c-16.5-3.7-28.3-8.6-35.3-14.8c-7.1-6.1-10.6-14-10.6-23.5c0-6.3,1.8-12.2,5.4-17.7
			c3.6-5.6,9.1-9.9,16.4-13.1C357.3,311,367.3,309.4,380,309.4z"/>
	</g>
</g>
<g id="Calque_10" class="st0">
	<g class="st1">
		<path class="st2" d="M37.4,246.2c13.7,3.7,27,2.3,39-5.4c11.3-7.2,19.5-18.2,23-31.1c2-7.5,1.7-13.7,1.4-22.4L72,179.5
			c4.7,6.7,6.3,15.5,4.2,23.4c-4,15-17.3,22.2-31.9,18.3c-14.4-3.9-23-16.8-19-31.6c2.2-8.2,7.9-15.2,15.9-18.4l-28.8-7.8
			c-4.9,6.3-8.5,13-10.6,20.7c-3.5,13-1.4,27.7,5.5,39.2C13.9,234.8,24.7,242.8,37.4,246.2z"/>
		<path class="st2" d="M120.1,163.1l-7.2-16.4l24.2-24.4l16.2,7.3l18.7-18.9L78.5,69L59.4,88.3l42.1,93.6L120.1,163.1z M90,99.5
			l28.8,14.3l-14.6,14.7L89.8,99.7L90,99.5z"/>
		<polygon class="st2" points="231.9,95.1 225,75.1 196.8,84.8 172.6,14.1 149,22.2 180.1,112.8 		"/>
		
			<rect x="243.8" y="0.4" transform="matrix(1 -3.678790e-03 3.678790e-03 1 -0.176 0.943)" class="st2" width="24.9" height="95.8"/>
		<path class="st2" d="M363.1,96.2c4.8-12.5,2.7-23.2-9.5-29.8l0.1-0.2c8.6-0.9,13.8-6.4,16.9-14.5c6.6-17.1-1.7-27.4-17.6-33.5
			L319.7,5.5l-34.4,89.4l35.8,13.8C337.5,115,355.9,115,363.1,96.2z M336.1,32.2l1.7,0.6c6.3,2.4,13.3,5.7,10.2,13.9
			c-2.9,7.6-9.7,6.2-15.9,3.8l-2.6-1L336.1,32.2z M315.4,86.1l7.4-19.2l2.4,0.9c7.6,2.9,19.5,6.3,15.3,17.1
			c-3.8,9.8-15.3,5-22.2,2.4L315.4,86.1z"/>
		<path class="st2" d="M376.9,145.5l27.6-24.5l0.2,0.2l-11.9,42.1l20.6,23.2l9.4-48.6c10.8,8.6,24.3,6.5,34.2-2.3
			c15.3-13.6,12.5-30.3-0.1-44.5L432,63.2l-71.6,63.6L376.9,145.5z M434.3,94.5l1.6,1.8c5.4,6.1,10.3,13.9,2.5,20.9
			c-7.8,6.9-15,1.1-20.4-5l-1.6-1.8L434.3,94.5z"/>
		<polygon class="st2" points="427.6,247.2 448,241.6 440.1,213 456,208.6 463.5,235.7 483.8,230.1 476.4,203.1 491.8,198.8 
			499.7,227.3 520,221.8 505.5,169.2 413.2,194.6 		"/>
		<path class="st2" d="M372.4,266.9c0.3-40.4-20.4-79.8-57.9-101.5c-55.5-32.1-126.6-13.2-158.7,42.3
			c-10.8,18.7-15.7,39.2-15.5,59.3v3.4H5.7C6.6,356.3,51.2,439.6,131,485.8c120.2,69.6,274.2,28.6,343.8-91.7
			c22.6-39,33.2-81.4,33.6-123.5h-136V266.9z M308.2,430.4c-4.4,7.6-10.4,13.4-18.2,17.3c-7.7,3.9-17.4,5.9-29.1,5.9
			c-14,0-25.3-2.4-33.7-7.2c-8.5-4.8-15.2-12.4-20.3-22.9s-7.6-24.4-7.6-41.6c0-25.3,5.3-43.8,16-55.6
			c10.6-11.8,25.4-17.6,44.3-17.6c11.2,0,20,1.3,26.4,3.9c6.5,2.6,11.8,6.4,16.1,11.3c4.3,5,7.5,11.2,9.7,18.7l-38.7,4.8
			c-1-5.4-2.7-9.2-5.1-11.5c-2.4-2.2-5.3-3.3-8.8-3.3c-6.3,0-11.2,3.2-14.7,9.6c-2.5,4.6-4.4,14.4-5.6,29.4
			c4.7-4.7,9.4-8.2,14.3-10.5c4.9-2.3,10.6-3.4,17-3.4c12.5,0,23.1,4.5,31.7,13.4s13,20.2,13,33.9
			C314.8,414.3,312.6,422.8,308.2,430.4z"/>
		<path class="st2" d="M259.2,381.8c-5.4,0-10,2-13.6,6c-3.7,4-5.5,9.7-5.5,17.2c0,7.6,1.9,13.5,5.7,17.8s8.5,6.5,14.1,6.5
			c5.1,0,9.4-1.9,12.8-5.8s5.2-9.7,5.2-17.4c0-7.9-1.8-13.9-5.4-18.1C268.9,383.9,264.5,381.8,259.2,381.8z"/>
	</g>
</g>
<g id="Calque_11" class="st0">
	<g class="st1">
		<path class="st2" d="M37.4,246.2c13.7,3.7,27,2.3,39-5.4c11.3-7.2,19.5-18.2,23-31.1c2-7.5,1.7-13.7,1.4-22.4L72,179.5
			c4.7,6.7,6.3,15.5,4.2,23.4c-4,15-17.3,22.2-31.9,18.3c-14.4-3.9-23-16.8-19-31.6c2.2-8.2,7.9-15.2,15.9-18.4l-28.8-7.8
			c-4.9,6.3-8.5,13-10.6,20.7c-3.5,13-1.4,27.7,5.5,39.2C13.9,234.8,24.7,242.8,37.4,246.2z"/>
		<path class="st2" d="M120.1,163.1l-7.2-16.4l24.2-24.4l16.2,7.3l18.7-18.9L78.5,69L59.4,88.3l42.1,93.6L120.1,163.1z M90,99.5
			l28.8,14.3l-14.6,14.7L89.8,99.7L90,99.5z"/>
		<polygon class="st2" points="231.9,95.1 225,75.1 196.8,84.8 172.6,14.1 149,22.2 180.1,112.8 		"/>
		
			<rect x="243.8" y="0.4" transform="matrix(1 -3.678790e-03 3.678790e-03 1 -0.176 0.943)" class="st2" width="24.9" height="95.8"/>
		<path class="st2" d="M363.1,96.2c4.8-12.5,2.7-23.2-9.5-29.8l0.1-0.2c8.6-0.9,13.8-6.4,16.9-14.5c6.6-17.1-1.7-27.4-17.6-33.5
			L319.7,5.5l-34.4,89.4l35.8,13.8C337.5,115,355.9,115,363.1,96.2z M336.1,32.2l1.7,0.6c6.3,2.4,13.3,5.7,10.2,13.9
			c-2.9,7.6-9.7,6.2-15.9,3.8l-2.6-1L336.1,32.2z M315.4,86.1l7.4-19.2l2.4,0.9c7.6,2.9,19.5,6.3,15.3,17.1
			c-3.8,9.8-15.3,5-22.2,2.4L315.4,86.1z"/>
		<path class="st2" d="M376.9,145.5l27.6-24.5l0.2,0.2l-11.9,42.1l20.6,23.2l9.4-48.6c10.8,8.6,24.3,6.5,34.2-2.3
			c15.3-13.6,12.5-30.3-0.1-44.5L432,63.2l-71.6,63.6L376.9,145.5z M434.3,94.5l1.6,1.8c5.4,6.1,10.3,13.9,2.5,20.9
			c-7.8,6.9-15,1.1-20.4-5l-1.6-1.8L434.3,94.5z"/>
		<polygon class="st2" points="427.6,247.2 448,241.6 440.1,213 456,208.6 463.5,235.7 483.8,230.1 476.4,203.1 491.8,198.8 
			499.7,227.3 520,221.8 505.5,169.2 413.2,194.6 		"/>
		<path class="st2" d="M372.4,266.9c0.3-40.4-20.4-79.8-57.9-101.5c-55.5-32.1-126.6-13.2-158.7,42.3
			c-10.8,18.7-15.7,39.2-15.5,59.3v3.4H5.7C6.6,356.3,51.2,439.6,131,485.8c120.2,69.6,274.2,28.6,343.8-91.7
			c22.6-39,33.2-81.4,33.6-123.5h-136V266.9z M307.7,423.5c-4.4,8.2-10.7,14.5-18.8,18.8c-8.1,4.3-18.5,6.5-31.1,6.5
			c-9.1,0-16.9-0.9-23.3-2.6c-6.5-1.7-12-4.3-16.5-7.7c-4.5-3.4-8.2-7.3-11-11.6c-2.8-4.3-5.2-9.7-7-16.2l38.7-4.2
			c0.9,6.2,3.1,10.9,6.6,14.1c3.4,3.2,7.5,4.8,12.3,4.8c5.3,0,9.7-2,13.2-6.1c3.5-4,5.2-10.1,5.2-18.1c0-8.2-1.8-14.2-5.3-18
			s-8.2-5.7-14-5.7c-3.7,0-7.3,0.9-10.7,2.7c-2.6,1.3-5.4,3.7-8.5,7.1l-32.6-4.7l12.1-74h90.8v30.5h-61.5l-3.3,20.7
			c4.3-2,8.5-3.5,12.6-4.5c4.2-1,8.3-1.5,12.4-1.5c13.8,0,25,4.2,33.5,12.5c8.6,8.3,12.9,18.8,12.9,31.5
			C314.3,406.7,312.1,415.3,307.7,423.5z"/>
	</g>
</g>
<g id="Calque_12" class="st0">
	<g class="st1">
		<path class="st2" d="M484.4,130.2l-121.5,70.3c-20.6-36.3-59.5-60.9-104.3-60.9c-66.2,0-119.8,53.6-119.8,119.8
			c0,22.3,6.2,43.1,16.8,61L35.3,390C80.1,467.9,164,520.5,260.4,520.5c143.4,0,259.6-116.2,259.6-259.6
			C520,213.2,506.9,168.6,484.4,130.2z M258.7,302.5c-14.1,0-26.5-6.8-34.6-17.1c-0.8-1.1-1.6-2.2-2.2-3.3l-0.2,0.1
			c-4.4-6.8-7-14.9-7-23.6c0-24.3,19.7-43.9,43.9-43.9c24.3,0,43.9,19.7,43.9,43.9C302.6,282.9,282.9,302.5,258.7,302.5z"/>
		<path class="st2" d="M39.9,260.4c0-121.3,98.4-219.7,219.7-219.7c39.4,0,76.3,10.5,108.2,28.6l0.2-0.1l-17.8,31.6l0,0l72.9-19.6
			L408.6-0.5L388.1,35C350.2,13.4,306.4,0.8,259.6,0.8C116.2,0.8,0,117,0,260.4c0,27.2,4.2,53.3,11.9,77.9L47.8,318
			C42.8,299.6,39.9,280.4,39.9,260.4z"/>
	</g>
</g>
<g id="Calque_13" class="st0">
	<g class="st1">
		<path class="st2" d="M191.8,60.5L176.9,14c-16.8,5.6-32.7,13-47.8,21.7L154.8,77L191.8,60.5z"/>
		<path class="st2" d="M390.9,35.8c-15-8.8-31-16-47.8-21.7l-14.9,46.4l37,16.5L390.9,35.8z"/>
		<path class="st2" d="M260,50.6c8.1,0,20.5-1.6,20.5-1.6L286,1.8c-8.5-0.8-17.2-1.3-26-1.3c-8.8,0-17.5,0.4-26,1.3l5.5,47.3
			C239.5,49,251.8,50.6,260,50.6z"/>
		<path class="st2" d="M65.6,181.4l-46.4-19.2c-6.7,16.3-11.7,33.5-15,51.2l49.7,7.3C56.6,207.1,60.5,193.9,65.6,181.4z"/>
		<path class="st2" d="M430.6,138.3l41.8-27.9c-10.1-14.3-21.7-27.6-34.5-39.6l-34.3,36.6C413.5,116.9,422.6,127.2,430.6,138.3z"/>
		<path class="st2" d="M89.4,138.4c8-11.1,17-21.5,27-30.8L82.1,70.9c-12.8,12-24.3,25.2-34.5,39.6L89.4,138.4L89.4,138.4z"/>
		<path class="st2" d="M466,220.7l49.7-7.3c-3.3-17.8-8.3-34.9-15-51.2l-46.4,19.2C459.4,194,463.4,207.1,466,220.7z"/>
		<polygon class="st2" points="327.8,308 308.9,363.9 347,363.9 328.3,308 		"/>
		<polygon class="st2" points="192.6,308 173.7,363.9 211.8,363.9 193.1,308 		"/>
		<path class="st2" d="M520,256.5c-79.3-35-167-54.5-259.3-54.5c-92.8,0-181,19.7-260.7,55.1c0,0.8,0,1.6,0,2.4
			c0,143.6,116.4,260,260,260s260-116.4,260-260C520,258.5,520,257.5,520,256.5z M224.1,398.9h-63L149,429.5h-48.5l67.6-175.8H218
			l38,101l-24.5,64.2L224.1,398.9z M370.7,429.5L359.3,399h-63l-12.1,30.5v0.1h-0.1h-48.5h-0.2v-0.1l24.5-64.2l0.2,0.6l43.1-112
			h49.9l66.2,175.8h-48.6V429.5z"/>
	</g>
</g>
<g id="Calque_14" class="st0">
	<g class="st1">
		<path class="st2" d="M191.8,60.5L176.9,14c-16.8,5.6-32.7,13-47.8,21.7L154.8,77L191.8,60.5z"/>
		<path class="st2" d="M390.9,35.8c-15-8.8-31-16-47.8-21.7l-14.9,46.4l37,16.5L390.9,35.8z"/>
		<path class="st2" d="M466,220.7l49.7-7.3c-3.3-17.8-8.3-34.9-15-51.2l-46.4,19.2C459.4,194,463.4,207.1,466,220.7z"/>
		<path class="st2" d="M260,50.6c8.1,0,20.5-1.6,20.5-1.6L286,1.8c-8.5-0.8-17.2-1.3-26-1.3c-8.8,0-17.5,0.4-26,1.3l5.5,47.3
			C239.5,49,251.8,50.6,260,50.6z"/>
		<path class="st2" d="M65.6,181.4l-46.4-19.2c-6.7,16.3-11.7,33.5-15,51.2l49.7,7.3C56.6,207.1,60.5,193.9,65.6,181.4z"/>
		<path class="st2" d="M430.6,138.3l41.8-27.9c-10.1-14.3-21.7-27.6-34.5-39.6l-34.3,36.6C413.5,116.9,422.6,127.2,430.6,138.3z"/>
		<path class="st2" d="M89.4,138.4c8-11.1,17-21.5,27-30.8L82.1,70.9c-12.8,12-24.3,25.2-34.5,39.6L89.4,138.4L89.4,138.4z"/>
		<polygon class="st2" points="260.3,305.8 235.7,378.8 285.2,378.8 260.9,305.8 		"/>
		<path class="st2" d="M520,256.5c-79.3-35-167-54.5-259.3-54.5c-92.8,0-181,19.7-260.7,55.1c0,0.8,0,1.6,0,2.4
			c0,143.6,116.4,260,260,260s260-116.4,260-260C520,258.5,520,257.5,520,256.5z M316.3,464.3l-14.9-39.8h-82.1l-15.8,39.8h-63.3
			l88.2-229.4h65.1l86.4,229.4H316.3z"/>
	</g>
</g>
<g>
	<path class="st2" d="M260,68.6c98.6,0,186.7,44.4,245.8,114.1C473,78.2,375.4,2.4,260,2.4S47,78.2,14.2,182.7
		C73.3,113,161.4,68.6,260,68.6z"/>
	<path class="st2" d="M260,193.5c-95.8,0-184.3,30.7-256.8,82.4C11.4,410.8,123.1,517.6,260,517.6s248.6-106.9,256.8-241.7
		C444.3,224.2,355.8,193.5,260,193.5z M261.7,463c-43.6,0-73.9-13.9-95.5-34.2l29.4-43.2c15.5,15.5,39.4,28.4,69.1,28.4
		c18.7,0,30.3-6.4,30.3-17.1c0-28.4-121.7-4.8-121.7-87.8c0-36.1,30.3-68.4,85.5-68.4c34.6,0,64.6,10.3,87.5,30l-30.3,41.6
		c-18.1-15.2-41.6-22.6-62.9-22.6c-16.1,0-23.2,5.5-23.2,14.8c0,26.4,121.7,6.4,121.7,86.5C351.4,434.2,319.4,463,261.7,463z"/>
</g>
</svg>
