<?xml version="1.0" encoding="iso-8859-1"?>
<!-- Generator: Adobe Illustrator 19.2.0, SVG Export Plug-In . SVG Version: 6.00 Build 0)  -->
<svg version="1.1" xmlns="http://www.w3.org/2000/svg" xmlns:xlink="http://www.w3.org/1999/xlink" x="0px" y="0px"
	 viewBox="0 0 520 520" style="enable-background:new 0 0 520 520;" xml:space="preserve">
<style type="text/css">
	.st0{display:none;}
	.st1{display:inline;}
	.st2{fill:#8E8C8A;}
</style>
<g id="Calque_1" class="st0">
	<g class="st1">
		<path class="st2" d="M260,0C116.4,0,0,116.4,0,260c0,143.6,116.4,260,260,260c143.6,0,260-116.4,260-260C520,116.4,403.6,0,260,0z
			 M260,33.4c48.6,0,93.5,15.3,130.4,41.3c-32.7,0-61,22-61,22c-42.4,28.5-69.1,27-69.1,27s-27.6,1.5-70-27c0,0-28.1-21.9-60.7-22
			C166.5,48.8,211.4,33.4,260,33.4z M99.5,100.2c9.7-4.6,19.5-7.6,28.5-7.6c0,0,23.2,0,60.7,25.7c0,0,30.3,24.5,70.8,24.8v0
			c0.1,0,0.3,0,0.4,0c0.1,0,0.3,0,0.4,0v0c40.5-0.3,70.8-24.8,70.8-24.8c37.5-25.7,60.7-25.7,60.7-25.7c9.2,0,19.1,3.1,29,7.9
			c20.4,20.5,36.8,44.9,48.1,71.9l-0.4-0.4c-43-39.5-74.6-36.4-74.6-36.4c-34.1-1.7-64.5,21.9-64.5,21.9
			c-42.4,28.5-96.7,28.5-139.1,0c0,0-30.3-23.6-64.5-21.9c0,0-31.6-3.1-74.5,36.3C62.7,144.9,79.2,120.6,99.5,100.2z M245,420.2
			c-5.4,10.5-13,18.4-22.9,23.9c-9.9,5.5-22.5,8.3-37.9,8.3c-11.1,0-20.5-1.1-28.4-3.3c-7.9-2.2-14.6-5.5-20.1-9.8
			c-5.5-4.3-10-9.3-13.4-14.8c-3.4-5.5-6.3-12.4-8.6-20.6l48.4-5.7c0.6,1.9,1.4,3.7,2.3,5.3c0.8,1.8,1.6,2.9,3,4.2
			c4.2,4.8,10.2,7.8,16.9,7.8c12.9,0,23.3-11.3,23.3-25.1c0-9-4.4-16.9-11.1-21.4c-1.1-0.8-2-1.4-3-1.7c-2.8-1.3-6-2.1-9.2-2.1
			c-7.9,0-14.9,4.2-19.1,10.7l-45.3-1.6l14.6-100.5h105v43.3l-69.4-0.1l-4,22.1c5.2-2.6,10.3-4.5,15.4-5.7c5.1-1.3,10.1-1.9,15-1.9
			c16.8,0,30.4,5.3,40.8,15.9c10.4,10.6,15.7,24,15.7,40.1C253.1,398.9,250.4,409.8,245,420.2z M336.8,451.7
			c-45,0-69.5-38.8-69.5-90.4c0-48.8,25.5-87.2,69.5-87.2c44,0,69.5,38.3,69.5,87.2C406.3,412.9,381.8,451.7,336.8,451.7z
			 M461.3,234.4c0,0-41.1-38-77.1-38c0,0-18.2-2.1-63,27.1c0,0-27.3,20.7-56.5,21.3h-9.4c-29.2-0.6-56.5-21.3-56.5-21.3
			c-44.8-29.2-63-27.1-63-27.1c-35.9,0-77.1,38-77.1,38c-17.7,18.7-25.4,21.3-25.4,21.3l0,0c0.3-17.6,2.7-34.7,6.9-51.1
			c1.9-1.9,51.2-51.4,87.6-51.4c0,0,23.2,0,60.7,25.7c0,0,30.3,24.5,70.8,24.8v0c0.1,0,0.3,0,0.4,0c0.1,0,0.3,0,0.4,0v0
			c40.5-0.3,70.8-24.8,70.8-24.8c37.5-25.7,60.7-25.7,60.7-25.7c37.1,0,87.7,51.5,87.7,51.5l0.1-0.4c4.2,16.5,6.6,33.6,6.9,51.3
			C485.2,255.1,477.4,251.5,461.3,234.4z"/>
		<path class="st2" d="M336.8,327.5c-15.8,0-18.9,21.2-18.9,35.4c0,13.2,4.1,37.9,18.9,37.9c14.9,0,18.9-24.7,18.9-37.9
			C355.7,348.7,352.6,327.5,336.8,327.5z"/>
	</g>
</g>
<g id="Calque_2" class="st0">
	<g class="st1">
		<path class="st2" d="M229,328.8c-16,0-19.1,21.4-19.1,35.7c0,13.4,4.1,38.2,19.1,38.2s19.1-24.9,19.1-38.2
			C248.1,350.2,245,328.8,229,328.8z"/>
		<path class="st2" d="M260,0C116.4,0,0,116.4,0,260c0,143.6,116.4,260,260,260c143.6,0,260-116.4,260-260C520,116.4,403.6,0,260,0z
			 M260,33.4c48.6,0,93.5,15.3,130.4,41.3c-32.7,0-61,22-61,22c-42.4,28.5-69.1,27-69.1,27s-27.6,1.5-70-27c0,0-28.1-21.9-60.7-22
			C166.5,48.8,211.4,33.4,260,33.4z M99.5,100.2c9.7-4.6,19.5-7.6,28.5-7.6c0,0,23.2,0,60.7,25.7c0,0,30.3,24.5,70.8,24.8v0
			c0.1,0,0.3,0,0.4,0c0.1,0,0.3,0,0.4,0v0c40.5-0.3,70.8-24.8,70.8-24.8c37.5-25.7,60.7-25.7,60.7-25.7c9.2,0,19.1,3.1,29,7.9
			c20.4,20.5,36.8,44.9,48.1,71.9l-0.4-0.4c-43-39.5-74.6-36.4-74.6-36.4c-34.1-1.7-64.5,21.9-64.5,21.9
			c-42.4,28.5-96.7,28.5-139.1,0c0,0-30.3-23.6-64.5-21.9c0,0-31.6-3.1-74.5,36.3C62.7,144.9,79.2,120.6,99.5,100.2z M139.6,445.3
			H92.4V326.1l-20.1-0.9v-43l67.3-2.6V445.3z M229,454c-45.5,0-70.2-39.1-70.2-91.2c0-49.3,25.8-87.9,70.2-87.9s70.2,38.7,70.2,87.9
			C299.2,414.9,274.5,454,229,454z M377.5,454c-45.5,0-70.2-39.1-70.2-91.2c0-49.3,25.8-87.9,70.2-87.9c44.5,0,70.2,38.7,70.2,87.9
			C447.7,414.9,422.9,454,377.5,454z M461.3,234.4c0,0-41.1-38-77.1-38c0,0-18.2-2.1-63,27.1c0,0-27.3,20.7-56.5,21.3h-9.4
			c-29.2-0.6-56.5-21.3-56.5-21.3c-44.8-29.2-63-27.1-63-27.1c-35.9,0-77.1,38-77.1,38c-17.7,18.7-25.4,21.3-25.4,21.3l0,0
			c0.3-17.6,2.7-34.7,6.9-51.1c1.9-1.9,51.2-51.4,87.6-51.4c0,0,23.2,0,60.7,25.7c0,0,30.3,24.5,70.8,24.8v0c0.1,0,0.3,0,0.4,0
			c0.1,0,0.3,0,0.4,0v0c40.5-0.3,70.8-24.8,70.8-24.8c37.5-25.7,60.7-25.7,60.7-25.7c37.1,0,87.7,51.5,87.7,51.5l0.1-0.4
			c4.2,16.5,6.6,33.6,6.9,51.3C485.2,255.1,477.4,251.5,461.3,234.4z"/>
		<path class="st2" d="M377.5,328.8c-16,0-19.1,21.4-19.1,35.7c0,13.4,4.1,38.2,19.1,38.2s19.1-24.9,19.1-38.2
			C396.6,350.2,393.5,328.8,377.5,328.8z"/>
	</g>
</g>
<g id="Calque_3" class="st0">
	<g class="st1">
		<path class="st2" d="M257.5,311.4c-14.6,0-17.5,19.3-17.5,32.2c0,12.1,3.7,34.5,17.5,34.5c13.7,0,17.5-22.5,17.5-34.5
			C274.9,330.7,272.1,311.4,257.5,311.4z"/>
		<path class="st2" d="M260,0C116.4,0,0,116.4,0,260c0,143.6,116.4,260,260,260c65.4,0,125.2-24.2,170.9-64.1l0,0l0,0
			C485.5,408.3,520,338.2,520,260C520,116.4,403.6,0,260,0z M260,33.4c48.6,0,93.5,15.3,130.4,41.3c-32.7,0-61,22-61,22
			c-42.4,28.5-69.1,27-69.1,27s-27.6,1.5-70-27c0,0-28.1-21.9-60.7-22C166.5,48.8,211.4,33.4,260,33.4z M99.5,100.2
			c9.7-4.6,19.5-7.6,28.5-7.6c0,0,23.2,0,60.7,25.7c0,0,30.3,24.5,70.8,24.8v0c0.1,0,0.3,0,0.4,0c0.1,0,0.3,0,0.4,0v0
			c40.5-0.3,70.8-24.8,70.8-24.8c37.5-25.7,60.7-25.7,60.7-25.7c9.2,0,19.1,3.1,29,7.9c20.4,20.5,36.8,44.9,48.1,71.9l-0.4-0.4
			c-43-39.5-74.6-36.4-74.6-36.4c-34.1-1.7-64.5,21.9-64.5,21.9c-42.4,28.5-96.7,28.5-139.1,0c0,0-30.3-23.6-64.5-21.9
			c0,0-31.6-3.1-74.5,36.3C62.7,144.9,79.2,120.6,99.5,100.2z M189.3,417.5H63.4l57.4-66.1c8.2-8.7,19.3-20.2,19.3-34.1
			c0-7.1-4.9-12.5-10.8-12.5c-10.1,0-11.3,10.2-11.7,19.8H70.9c3.5-45.7,20.6-66.3,60.1-66.3c27.4,0,56.3,18.9,56.3,55.3
			c0,31.6-15,42.3-37.7,63.8l-8.5,7.3l22.5,0.2l25.6-0.2V417.5z M257.5,424.5c-41.6,0-64.2-35.4-64.2-82.4
			c0-44.5,23.5-79.4,64.2-79.4c40.7,0,64.2,34.9,64.2,79.4C321.7,389.1,299,424.5,257.5,424.5z M392.4,424.5
			c-41.6,0-64.2-35.4-64.2-82.4c0-44.5,23.5-79.4,64.2-79.4s64.2,34.9,64.2,79.4C456.6,389.1,434,424.5,392.4,424.5z M461.3,234.4
			c0,0-41.1-38-77.1-38c0,0-18.2-2.1-63,27.1c0,0-27.3,20.7-56.5,21.3h-9.4c-29.2-0.6-56.5-21.3-56.5-21.3
			c-44.8-29.2-63-27.1-63-27.1c-35.9,0-77.1,38-77.1,38c-17.7,18.7-25.4,21.3-25.4,21.3l0,0c0.3-17.6,2.7-34.7,6.9-51.1
			c1.9-1.9,51.2-51.4,87.6-51.4c0,0,23.2,0,60.7,25.7c0,0,30.3,24.5,70.8,24.8v0c0.1,0,0.3,0,0.4,0c0.1,0,0.3,0,0.4,0v0
			c40.5-0.3,70.8-24.8,70.8-24.8c37.5-25.7,60.7-25.7,60.7-25.7c37.1,0,87.7,51.5,87.7,51.5l0.1-0.4c4.2,16.5,6.6,33.6,6.9,51.3
			C485.2,255.1,477.4,251.5,461.3,234.4z"/>
		<path class="st2" d="M392.4,311.4c-14.6,0-17.5,19.3-17.5,32.2c0,12.1,3.7,34.5,17.5,34.5s17.5-22.5,17.5-34.5
			C409.9,330.7,407,311.4,392.4,311.4z"/>
	</g>
</g>
<g id="Calque_4">
	<g>
		<path class="st2" d="M260.2,312.6c-14.8,0-17.7,19.6-17.7,32.6c0,12.2,3.8,34.9,17.7,34.9c13.9,0,17.7-22.7,17.7-34.9
			C277.9,332.1,275,312.6,260.2,312.6z"/>
		<path class="st2" d="M260,0C116.4,0,0,116.4,0,260c0,143.6,116.4,260,260,260c65.4,0,125.2-24.2,170.9-64.1l0,0l0,0
			c10.8-9.4,20.7-19.7,29.8-30.7l0,0l0,0c37-44.9,59.2-102.4,59.2-165.2C520,116.4,403.6,0,260,0z M260,33.4
			c48.6,0,93.5,15.3,130.4,41.3c-32.7,0-61,22-61,22c-42.4,28.5-69.1,27-69.1,27s-27.6,1.5-70-27c0,0-28.1-21.9-60.7-22
			C166.5,48.8,211.4,33.4,260,33.4z M99.5,100.2c9.7-4.6,19.5-7.6,28.5-7.6c0,0,23.2,0,60.7,25.7c0,0,30.3,24.5,70.8,24.8v0
			c0.1,0,0.3,0,0.4,0c0.1,0,0.3,0,0.4,0v0c40.5-0.3,70.8-24.8,70.8-24.8c37.5-25.7,60.7-25.7,60.7-25.7c9.2,0,19.1,3.1,29,7.9
			c20.4,20.5,36.8,44.9,48.1,71.9l-0.4-0.4c-43-39.5-74.6-36.4-74.6-36.4c-34.1-1.7-64.5,21.9-64.5,21.9
			c-42.4,28.5-96.7,28.5-139.1,0c0,0-30.3-23.6-64.5-21.9c0,0-31.6-3.1-74.5,36.3C62.7,144.9,79.2,120.6,99.5,100.2z M120.8,426.4
			c-32,0-60.7-14.7-62.3-57.8h48c-0.3,9.4,5.6,17.8,13.6,17.8c6.4,0,12.9-6.5,12.9-14.4c0-8-5.6-14.7-12-14.7
			c-2.3,0-4.3,0.4-6.4,0.8v-32.9l3.8,0.4c5.2,0.6,9.9-4.8,9.9-11.3s-4-10.5-9.2-10.5c-5.4,0-8.9,5.9-8.3,12.1h-47
			c3-39.6,26.8-52.6,56.7-52.6c22.1,0,54.1,12.4,54.1,45.2c0,13-6.1,25.3-16.2,30.6v1.3c13.7,4.2,21.7,18.8,21.7,35.6
			C180.1,414.4,146.7,426.4,120.8,426.4z M260.2,427c-42.1,0-65.1-35.8-65.1-83.3c0-45,23.9-80.3,65.1-80.3
			c41.2,0,65.1,35.3,65.1,80.3C325.3,391.2,302.3,427,260.2,427z M396.4,427c-42.1,0-65.1-35.8-65.1-83.3c0-45,23.9-80.3,65.1-80.3
			c41.2,0,65.1,35.3,65.1,80.3C461.5,391.2,438.5,427,396.4,427z M461.3,234.4c0,0-41.1-38-77.1-38c0,0-18.2-2.1-63,27.1
			c0,0-27.3,20.7-56.5,21.3h-9.4c-29.2-0.6-56.5-21.3-56.5-21.3c-44.8-29.2-63-27.1-63-27.1c-35.9,0-77.1,38-77.1,38
			c-17.7,18.7-25.4,21.3-25.4,21.3l0,0c0.3-17.6,2.7-34.7,6.9-51.1c1.9-1.9,51.2-51.4,87.6-51.4c0,0,23.2,0,60.7,25.7
			c0,0,30.3,24.5,70.8,24.8v0c0.1,0,0.3,0,0.4,0c0.1,0,0.3,0,0.4,0v0c40.5-0.3,70.8-24.8,70.8-24.8c37.5-25.7,60.7-25.7,60.7-25.7
			c37.1,0,87.7,51.5,87.7,51.5l0.1-0.4c4.2,16.5,6.6,33.6,6.9,51.3C485.2,255.1,477.4,251.5,461.3,234.4z"/>
		<path class="st2" d="M396.4,312.6c-14.8,0-17.7,19.6-17.7,32.6c0,12.2,3.8,34.9,17.7,34.9c13.9,0,17.7-22.7,17.7-34.9
			C414.1,332.1,411.2,312.6,396.4,312.6z"/>
	</g>
	<g>
	</g>
	<g>
	</g>
	<g>
	</g>
	<g>
	</g>
	<g>
	</g>
	<g>
	</g>
</g>
</svg>
