<?xml version="1.0" encoding="utf-8"?>
<!-- Generator: Adobe Illustrator 16.0.0, SVG Export Plug-In . SVG Version: 6.00 Build 0)  -->
<!DOCTYPE svg PUBLIC "-//W3C//DTD SVG 1.1//EN" "http://www.w3.org/Graphics/SVG/1.1/DTD/svg11.dtd">
<svg version="1.1" xmlns="http://www.w3.org/2000/svg" xmlns:xlink="http://www.w3.org/1999/xlink" x="0px" y="0px"
	 width="595.28px" height="595.275px" viewBox="0 0 595.28 595.275" enable-background="new 0 0 595.28 595.275"
	 xml:space="preserve">
<g id="Link_dial" display="none">
	<g display="inline">
		<line fill="none" x1="546.207" y1="95.212" x2="49.073" y2="95.212"/>
		<path fill="none" stroke="#8F9D94" stroke-width="2" stroke-miterlimit="10" d="M387.234,154.831c0,0,0.375-58.898-3.125-72.705
			s-36.648-12.931-36.648-12.931h-80.972c0,0-37.029-0.876-40.529,12.931s-2.645,71.796-2.645,71.796"/>
		<circle fill="none" stroke="#8F9D94" stroke-width="2" stroke-miterlimit="10" cx="305.398" cy="297.6" r="165.479"/>
		<circle fill="none" stroke="#8F9D94" stroke-width="2" stroke-miterlimit="10" cx="305.398" cy="297.6" r="158.875"/>
		<path fill="#404344" d="M441.914,297.6c0,75.395-61.121,136.516-136.516,136.516c-75.396,0-136.515-61.121-136.515-136.516
			s61.119-136.516,136.515-136.516C380.793,161.084,441.914,222.205,441.914,297.6"/>
		<path fill="#404345" d="M433.588,297.6c0,70.797-57.393,128.188-128.189,128.188S177.209,368.397,177.209,297.6
			s57.393-128.189,128.189-128.189S433.588,226.803,433.588,297.6"/>
		<circle fill="none" stroke="#FFFFFF" stroke-width="2" stroke-miterlimit="10" cx="305.398" cy="297.6" r="128.189"/>
		<path fill="#404345" d="M348.725,231.087c0,24.511-19.871,44.382-44.383,44.382c-24.51,0-44.38-19.871-44.38-44.382
			c0-24.511,19.87-44.382,44.38-44.382C328.854,186.706,348.725,206.577,348.725,231.087"/>
		<circle fill="none" stroke="#FFFFFF" stroke-width="2" stroke-miterlimit="10" cx="304.343" cy="231.087" r="44.381"/>
		<path fill="#FFFFFF" d="M309.617,230.956c0-2.147-1.322-4.066-3.285-4.867v-24.092l-1.982-8.001l-1.996,8.001v24.092
			c-1.963,0.801-3.287,2.72-3.287,4.867c0,2.205,1.363,4.092,3.287,4.88v4.984l1.982,2.088l1.996-2.088v-4.984
			C308.256,235.047,309.617,233.16,309.617,230.956 M304.342,233.628c-1.473,0-2.672-1.199-2.672-2.673s1.199-2.673,2.672-2.673
			c1.475,0,2.674,1.199,2.674,2.673S305.816,233.628,304.342,233.628"/>
		<path fill="#404345" d="M291.225,294.587c0,28.93-23.452,52.382-52.382,52.382c-28.929,0-52.381-23.452-52.381-52.382
			c0-28.93,23.452-52.382,52.381-52.382C267.772,242.206,291.225,265.658,291.225,294.587"/>
		<circle fill="none" stroke="#FFFFFF" stroke-width="2" stroke-miterlimit="10" cx="238.843" cy="294.587" r="52.381"/>
		<path fill="#404345" d="M284.903,294.587c0,25.438-20.622,46.061-46.061,46.061c-25.438,0-46.06-20.623-46.06-46.061
			s20.622-46.06,46.06-46.06C264.281,248.527,284.903,269.149,284.903,294.587"/>
		<circle fill="none" stroke="#FFFFFF" stroke-width="2" stroke-miterlimit="10" cx="238.843" cy="294.587" r="46.06"/>
		<path fill="#FFFFFF" d="M245.069,294.432c0-2.534-1.562-4.799-3.878-5.744v-28.435l-2.341-9.443l-2.356,9.443v28.435
			c-2.315,0.945-3.878,3.21-3.878,5.744c0,2.602,1.607,4.83,3.878,5.76v5.883l2.342,2.464l2.355-2.464v-5.884
			C243.463,299.262,245.069,297.034,245.069,294.432 M238.843,297.586c-1.739,0-3.154-1.415-3.154-3.155
			c0-1.739,1.415-3.154,3.154-3.154c1.74,0,3.155,1.415,3.155,3.154C241.998,296.171,240.583,297.586,238.843,297.586"/>
		<rect x="374.305" y="282.847" fill="#404345" width="29.262" height="23.692"/>
		
			<rect x="374.305" y="282.847" fill="none" stroke="#FFFFFF" stroke-width="2" stroke-miterlimit="10" width="29.262" height="23.692"/>
		<polygon fill="#404345" points="341.539,276.63 341.539,286.5 341.539,287.243 341.539,295.313 354.477,301.568 367.414,295.313 
			367.414,276.63 		"/>
		<polygon fill="none" stroke="#FFFFFF" stroke-width="2" stroke-miterlimit="10" points="341.539,276.63 341.539,286.5 
			341.539,287.243 341.539,295.313 354.477,301.568 367.414,295.313 367.414,276.63 		"/>
		<line fill="#404345" x1="341.762" y1="288.04" x2="367.217" y2="288.04"/>
		<line fill="none" stroke="#FFFFFF" stroke-width="2" stroke-miterlimit="10" x1="341.762" y1="288.04" x2="367.217" y2="288.04"/>
		<path fill="none" stroke="#8F9D94" stroke-width="2" stroke-miterlimit="10" d="M223.367,153.613v-40.573
			c0-0.645-0.601-1.122-1.229-0.974c0,0-19.003,11.446-19.129,11.735l-40.152,89.084"/>
		<path fill="none" stroke="#8F9D94" stroke-width="2" stroke-miterlimit="10" d="M438.547,199.406l-31.201-75.605
			c-0.125-0.289-19.129-11.735-19.129-11.735c-0.627-0.148-1.229,0.329-1.229,0.973v40.574"/>
		<rect x="302.9" y="165.093" fill="#FFFFFF" width="5" height="5"/>
		
			<rect x="368.513" y="182.841" transform="matrix(0.5052 -0.863 0.863 0.5052 23.6263 411.8918)" fill="#FFFFFF" width="4.999" height="5.002"/>
		
			<rect x="415.151" y="229.48" transform="matrix(0.8629 -0.5054 0.5054 0.8629 -59.9757 242.9159)" fill="#FFFFFF" width="5" height="5"/>
		<rect x="432.9" y="295.093" fill="#FFFFFF" width="5" height="5"/>
		
			<rect x="415.151" y="360.707" transform="matrix(0.8629 0.5054 -0.5054 0.8629 240.8607 -161.2899)" fill="#FFFFFF" width="5" height="5"/>
		
			<rect x="368.514" y="407.344" transform="matrix(0.5053 0.8629 -0.8629 0.5053 537.1948 -117.4188)" fill="#FFFFFF" width="4.998" height="4.999"/>
		<rect x="302.9" y="425.093" fill="#FFFFFF" width="5" height="5"/>
		<rect x="302.896" y="425.106" fill="#FFFFFF" width="5" height="5"/>
		
			<rect x="237.283" y="407.357" transform="matrix(-0.5054 0.8629 -0.8629 -0.5054 714.6295 410.1209)" fill="#FFFFFF" width="5" height="5"/>
		
			<rect x="190.645" y="360.721" transform="matrix(-0.8629 0.5054 -0.5054 -0.8629 543.3918 579.0029)" fill="#FFFFFF" width="5" height="5"/>
		<rect x="172.896" y="295.107" fill="#FFFFFF" width="5" height="5"/>
		
			<rect x="190.645" y="229.493" transform="matrix(-0.8629 -0.5054 0.5054 -0.8629 242.5418 529.7947)" fill="#FFFFFF" width="5" height="5"/>
		
			<rect x="237.283" y="182.855" transform="matrix(-0.5055 -0.8628 0.8628 -0.5055 201.0612 485.9432)" fill="#FFFFFF" width="5" height="5"/>
		<rect x="302.896" y="165.107" fill="#FFFFFF" width="5" height="5"/>
		<polygon fill="#404345" points="307.027,183.363 300.072,183.363 298.335,173.262 308.768,173.262 		"/>
		<polygon fill="none" stroke="#FFFFFF" stroke-width="2" stroke-miterlimit="10" points="307.027,183.363 300.072,183.363 
			298.335,173.262 308.768,173.262 		"/>
		<polygon fill="#404345" points="355.57,214.563 349.568,211.047 361.031,188.039 370.033,193.313 		"/>
		<polygon fill="none" stroke="#FFFFFF" stroke-width="2" stroke-miterlimit="10" points="355.57,214.563 349.568,211.047 
			361.031,188.039 370.033,193.313 		"/>
		<polygon fill="#404345" points="390.037,251.517 386.521,245.516 407.773,231.051 413.045,240.054 		"/>
		<polygon fill="none" stroke="#FFFFFF" stroke-width="2" stroke-miterlimit="10" points="390.037,251.517 386.521,245.516 
			407.773,231.051 413.045,240.054 		"/>
		<polygon fill="#404345" points="407.926,301.012 407.926,294.057 427.824,292.318 427.824,302.751 		"/>
		<polygon fill="none" stroke="#FFFFFF" stroke-width="2" stroke-miterlimit="10" points="407.926,301.012 407.926,294.057 
			427.824,292.318 427.824,302.751 		"/>
		<polygon fill="#404345" points="386.521,349.554 390.037,343.552 413.047,355.015 407.771,364.017 		"/>
		<polygon fill="none" stroke="#FFFFFF" stroke-width="2" stroke-miterlimit="10" points="386.521,349.554 390.037,343.552 
			413.047,355.015 407.771,364.017 		"/>
		<polygon fill="#404345" points="349.568,384.021 355.568,380.505 370.033,401.757 361.031,407.03 		"/>
		<polygon fill="none" stroke="#FFFFFF" stroke-width="2" stroke-miterlimit="10" points="349.568,384.021 355.568,380.505 
			370.033,401.757 361.031,407.03 		"/>
		<polygon fill="#404345" points="300.072,409.995 307.027,409.995 308.768,421.808 298.334,421.808 		"/>
		<polygon fill="none" stroke="#FFFFFF" stroke-width="2" stroke-miterlimit="10" points="300.072,409.995 307.027,409.995 
			308.768,421.808 298.334,421.808 		"/>
		<polygon fill="#404345" points="251.572,214.593 257.573,211.078 246.11,188.068 237.108,193.342 		"/>
		<polygon fill="none" stroke="#FFFFFF" stroke-width="2" stroke-miterlimit="10" points="251.572,214.593 257.573,211.078 
			246.11,188.068 237.108,193.342 		"/>
		<polygon fill="#404345" points="210.979,248.055 214.495,242.054 199.369,231.081 194.096,240.083 		"/>
		<polygon fill="none" stroke="#FFFFFF" stroke-width="2" stroke-miterlimit="10" points="210.979,248.055 214.495,242.054 
			199.369,231.081 194.096,240.083 		"/>
		<polygon fill="#404345" points="215.696,351.981 212.181,345.981 194.096,355.044 199.369,364.046 		"/>
		<polygon fill="none" stroke="#FFFFFF" stroke-width="2" stroke-miterlimit="10" points="215.696,351.981 212.181,345.981 
			194.096,355.044 199.369,364.046 		"/>
		<polygon fill="#404345" points="257.573,384.05 251.572,380.534 237.108,401.786 246.11,407.06 		"/>
		<polygon fill="none" stroke="#FFFFFF" stroke-width="2" stroke-miterlimit="10" points="257.573,384.05 251.572,380.534 
			237.108,401.786 246.11,407.06 		"/>
		<path fill="none" stroke="#8F9D94" stroke-width="2" stroke-miterlimit="10" d="M430.23,176.97l1.408-0.268
			c1.334-0.254,2.707,0.187,3.645,1.171l1.875,1.97l7.605-3.718c0,0,2.365,0.338,18.082,20.278
			c13.605,17.265,11.828,25.517,11.828,25.517l-8.617,6.421l0.428,1.347c0.461,1.451,0.059,3.04-1.039,4.096l-2.6,2.5l-4.564-2.197"
			/>
		
			<line fill="none" stroke="#8F9D94" stroke-width="2" stroke-miterlimit="10" x1="437.16" y1="179.673" x2="465.887" y2="228.172"/>
		<path fill="none" stroke="#8F9D94" stroke-width="2" stroke-miterlimit="10" d="M428.012,419.657l2.615,0.729
			c1.334,0.254,2.707-0.188,3.645-1.17l1.877-1.971l7.604,3.719c0,0,2.365-0.34,18.082-20.279
			c13.607-17.264,11.828-25.518,11.828-25.518l-8.617-6.422l0.428-1.346c0.463-1.451,0.059-3.039-1.039-4.096l-2.6-2.5l-4.563,2.197
			"/>
		<path fill="none" stroke="#8F9D94" stroke-width="2" stroke-miterlimit="10" d="M462.012,235.825c0,0,12.834,17.5,19.834,33.167
			l-12.5,4.5"/>
		<path fill="none" stroke="#8F9D94" stroke-width="2" stroke-miterlimit="10" d="M463.012,361.491c0,0,13.168-16.333,18.834-32.833
			l-12.666-6.167"/>
		<path fill="none" stroke="#8F9D94" stroke-width="2" stroke-miterlimit="10" d="M475.178,325.317h9.039
			c3.455,0,7.105-4.942,7.105-4.942c2.998-5.738,4.842-13.502,4.842-22.058s-1.844-16.32-4.842-22.058c0,0-3.65-4.942-7.105-4.942
			h-9.039"/>
		<path fill="none" stroke="#8F9D94" stroke-width="2" stroke-miterlimit="10" d="M222.431,440.446c0,0-0.375,58.896,3.125,72.705
			c3.5,13.807,36.649,12.93,36.649,12.93h80.971c0,0,37.029,0.877,40.529-12.93c3.5-13.809,2.645-71.797,2.645-71.797"/>
		<path fill="none" stroke="#8F9D94" stroke-width="2" stroke-miterlimit="10" d="M386.299,441.663v40.572
			c0,0.645,0.6,1.123,1.229,0.975c0,0,19.002-11.445,19.129-11.734l29.855-72.818"/>
		<path fill="none" stroke="#8F9D94" stroke-width="2" stroke-miterlimit="10" d="M159.263,375.657l43.057,95.818
			c0.126,0.289,19.129,11.734,19.129,11.734c0.628,0.146,1.229-0.328,1.229-0.975v-40.572"/>
		<path fill="#404345" d="M348.783,357.935c0,24.51-19.869,44.381-44.381,44.381c-24.511,0-44.381-19.871-44.381-44.381
			c0-24.512,19.87-44.383,44.381-44.383C328.914,313.552,348.783,333.422,348.783,357.935"/>
		<circle fill="none" stroke="#FFFFFF" stroke-width="2" stroke-miterlimit="10" cx="304.402" cy="357.935" r="44.381"/>
		<path fill="#FFFFFF" d="M312.094,290.542l86.168-72.259l-3.986-4.086l-62.301,51.601l-3.816-3.396l-15.225,19.169l-6.301,5.217
			c-0.77-0.197-1.57-0.313-2.4-0.313c-0.756,0-1.488,0.096-2.193,0.26l-59.894-41.367l-4.446,5.921l57.176,42.508
			c-0.185,0.747-0.295,1.525-0.295,2.329c0,0.209,0.02,0.414,0.032,0.619l-14.302,11.846l3.763,5.448l9.594-8.044l-67.475,86.775
			l1.067,0.85l72.561-88.919c1.324,0.683,2.82,1.077,4.412,1.077c1.801,0,3.48-0.503,4.926-1.363l10.855,8.07l6.398-8.917
			l-12.623-8.719C313.578,293.258,312.982,291.791,312.094,290.542"/>
		<path fill="#FFFFFF" d="M309.678,357.802c0-2.146-1.322-4.066-3.285-4.867v-24.092l-1.984-8.001l-1.996,8.001v24.092
			c-1.963,0.801-3.285,2.721-3.285,4.867c0,2.205,1.361,4.092,3.285,4.881v4.982l1.984,2.09l1.996-2.09v-4.982
			C308.316,361.894,309.678,360.007,309.678,357.802 M304.402,360.476c-1.473,0-2.672-1.199-2.672-2.674s1.199-2.672,2.672-2.672
			c1.475,0,2.672,1.197,2.672,2.672S305.877,360.476,304.402,360.476"/>
	</g>
</g>
<g id="Link_case" display="none">
	<g display="inline">
		<path fill="#404345" d="M407.29,419.63l2.757,0.756c1.335,0.254,2.707-0.188,3.645-1.172l1.877-1.969l7.604,3.717
			c0,0,2.365-0.338,18.081-20.277c13.606-17.266,11.829-25.518,11.829-25.518l-8.618-6.42l0.428-1.348
			c0.462-1.451,0.06-3.039-1.039-4.096l-2.6-2.5l-5.484,1.816c0,0-5.161,15.42-12.09,24.883c-6.928,9.463-9.785,12.742-9.785,12.742
			L407.29,419.63z"/>
		
			<line fill="none" stroke="#FFFFFF" stroke-width="2" stroke-miterlimit="10" x1="414.854" y1="419.483" x2="445.979" y2="367.187"/>
		<path fill="#404345" d="M408.316,177.295l2.741-0.594c1.335-0.254,2.707,0.187,3.646,1.171l1.876,1.97l7.604-3.717
			c0,0,2.366,0.338,18.082,20.278c13.607,17.264,11.828,25.516,11.828,25.516l-8.618,6.422l0.43,1.346
			c0.461,1.452,0.059,3.04-1.041,4.096l-3.371,3.468l-3.791-3.165c0,0-6.082-15.039-13.012-24.502
			c-6.928-9.464-8.279-13.012-8.279-13.012L408.316,177.295z"/>
		<path fill="#404345" d="M440.623,234.879c0,0,13.643,18.438,20.66,34.097l-13.747,5.014c0,0-10.909-35.606-11.912-38.105
			s-0.755-4.499-0.755-4.499L440.623,234.879z"/>
		<path fill="#404345" d="M475.941,298.317c0-8.556-1.844-16.32-4.84-22.058c0,0-3.652-4.942-7.107-4.942h-19.038v54h19.038
			c3.455,0,7.107-4.942,7.107-4.942C474.098,314.637,475.941,306.873,475.941,298.317"/>
		<path fill="#404345" d="M448.598,322.491l12.667,6.167c-5.667,16.5-18.834,32.833-18.834,32.833l-7.989,1.467l12.748-41.031
			L448.598,322.491z"/>
		<path fill="none" stroke="#8F9D94" stroke-width="2" stroke-miterlimit="10" d="M201.85,440.444c0,0-0.375,58.898,3.125,72.705
			c3.5,13.809,36.649,12.932,36.649,12.932h80.972c0,0,37.029,0.877,40.529-12.932c3.5-13.807,2.645-71.795,2.645-71.795"/>
		<path fill="#404345" d="M365.718,441.663v40.572c0,0.645,0.601,1.121,1.229,0.975c0,0,19.003-11.447,19.13-11.736l29.855-72.816"
			/>
		<path fill="none" stroke="#8F9D94" stroke-width="2" stroke-miterlimit="10" d="M366.654,154.83c0,0,0.375-58.898-3.125-72.705
			c-3.5-13.807-36.648-12.931-36.648-12.931h-80.973c0,0-37.029-0.876-40.529,12.931c-3.5,13.807-2.645,71.796-2.645,71.796"/>
		<path fill="#404345" d="M202.786,153.613V113.04c0-0.645-0.601-1.122-1.229-0.974c0,0-19.003,11.446-19.129,11.735l-40.152,89.084
			"/>
		<path fill="#404345" d="M417.967,199.406l-31.201-75.605c-0.126-0.289-19.129-11.735-19.129-11.735
			c-0.628-0.148-1.229,0.329-1.229,0.973v40.574"/>
		<path fill="#404345" d="M138.681,375.657l43.057,95.816c0.126,0.289,19.129,11.736,19.129,11.736
			c0.628,0.146,1.229-0.33,1.229-0.975v-40.572"/>
		<path fill="#404345" d="M450.296,297.6c0,91.392-74.087,165.479-165.479,165.479c-91.391,0-165.479-74.088-165.479-165.479
			c0-91.391,74.087-165.479,165.479-165.479C376.209,132.121,450.296,206.208,450.296,297.6"/>
		<circle fill="none" stroke="#FFFFFF" stroke-width="2" stroke-miterlimit="10" cx="284.817" cy="297.6" r="165.479"/>
		<path fill="#404345" d="M443.693,297.6c0,87.743-71.131,158.876-158.875,158.876c-87.745,0-158.876-71.133-158.876-158.876
			c0-87.744,71.131-158.875,158.876-158.875C372.563,138.725,443.693,209.855,443.693,297.6"/>
		<circle fill="none" stroke="#FFFFFF" stroke-width="2" stroke-miterlimit="10" cx="284.818" cy="297.6" r="158.876"/>
		<path fill="#FFFFFF" d="M421.333,297.6c0,75.396-61.12,136.517-136.516,136.517c-75.395,0-136.515-61.121-136.515-136.517
			c0-75.396,61.12-136.516,136.515-136.516C360.213,161.083,421.333,222.204,421.333,297.6"/>
		<circle fill="none" stroke="#8F9D94" stroke-width="2" stroke-miterlimit="10" cx="284.818" cy="297.6" r="128.19"/>
		<path fill="#FFFFFF" d="M328.144,231.087c0,24.511-19.87,44.382-44.382,44.382c-24.511,0-44.381-19.871-44.381-44.382
			c0-24.511,19.87-44.382,44.381-44.382C308.273,186.705,328.144,206.576,328.144,231.087"/>
		<circle fill="none" stroke="#8F9E94" stroke-width="2" stroke-miterlimit="10" cx="283.762" cy="231.087" r="44.381"/>
		<path fill="#8F9E94" d="M289.037,230.955c0-2.147-1.322-4.066-3.285-4.867v-24.092l-1.983-8.001l-1.996,8.001v24.092
			c-1.963,0.801-3.286,2.72-3.286,4.867c0,2.205,1.362,4.092,3.286,4.88v4.984l1.983,2.088l1.996-2.088v-4.984
			C287.676,235.047,289.037,233.159,289.037,230.955 M283.762,233.628c-1.473,0-2.672-1.199-2.672-2.673
			c0-1.474,1.199-2.673,2.672-2.673c1.474,0,2.673,1.199,2.673,2.673C286.435,232.429,285.235,233.628,283.762,233.628"/>
		<path fill="#FFFFFF" d="M270.644,294.587c0,28.93-23.452,52.382-52.382,52.382c-28.929,0-52.381-23.453-52.381-52.382
			c0-28.93,23.452-52.382,52.381-52.382C247.192,242.205,270.644,265.657,270.644,294.587"/>
		<circle fill="none" stroke="#8F9E94" stroke-width="2" stroke-miterlimit="10" cx="218.262" cy="294.587" r="52.381"/>
		<circle fill="none" stroke="#8F9D94" stroke-width="2" stroke-miterlimit="10" cx="218.262" cy="294.587" r="46.06"/>
		<path fill="#8F9E94" d="M224.488,294.431c0-2.534-1.562-4.799-3.878-5.744v-28.435l-2.341-9.443l-2.356,9.443v28.435
			c-2.316,0.945-3.878,3.21-3.878,5.744c0,2.602,1.607,4.83,3.878,5.76v5.883l2.341,2.464l2.356-2.464v-5.883
			C222.881,299.261,224.488,297.033,224.488,294.431 M218.262,297.586c-1.739,0-3.154-1.415-3.154-3.155
			c0-1.739,1.415-3.154,3.154-3.154c1.74,0,3.155,1.415,3.155,3.154C221.417,296.171,220.001,297.586,218.262,297.586"/>
		<rect x="353.723" y="282.846" fill="#FFFFFF" width="29.262" height="23.692"/>
		
			<rect x="353.723" y="282.846" fill="none" stroke="#8F9E94" stroke-width="2" stroke-miterlimit="10" width="29.262" height="23.692"/>
		<polygon fill="#FFFFFF" points="320.959,276.629 320.959,286.5 320.959,287.243 320.959,295.313 333.896,301.567 346.833,295.313 
			346.833,276.629 		"/>
		<polygon fill="none" stroke="#8F9E94" stroke-width="2" stroke-miterlimit="10" points="320.959,276.629 320.959,286.5 
			320.959,287.243 320.959,295.313 333.896,301.567 346.833,295.313 346.833,276.629 		"/>
		<line fill="#FFFFFF" x1="321.182" y1="288.04" x2="346.637" y2="288.04"/>
		<line fill="none" stroke="#8F9E94" stroke-width="2" stroke-miterlimit="10" x1="321.182" y1="288.04" x2="346.637" y2="288.04"/>
		<rect x="282.74" y="146.648" fill="#FFFFFF" width="3.716" height="4.686"/>
		<polygon fill="#FFFFFF" points="239.04,153.969 242.529,152.647 244.067,157.047 240.578,158.37 		"/>
		<polygon fill="#FFFFFF" points="203.443,171.86 206.582,169.799 208.979,173.758 205.839,175.818 		"/>
		<polygon fill="#FFFFFF" points="169.216,205.656 171.5,202.613 175.04,205.494 172.755,208.537 		"/>
		<polygon fill="#FFFFFF" points="145.402,253.473 146.371,249.747 150.704,250.967 149.736,254.693 		"/>
		<polygon fill="#FFFFFF" points="139.344,300.316 139.289,296.458 143.776,296.388 143.831,300.246 		"/>
		<polygon fill="#FFFFFF" points="159.532,375.476 157.436,372.296 161.135,369.653 163.231,372.833 		"/>
		<polygon fill="#FFFFFF" points="199.893,422.108 196.977,419.729 199.745,416.054 202.66,418.433 		"/>
		<polygon fill="#FFFFFF" points="244.95,444.226 241.461,442.927 242.97,438.528 246.459,439.827 		"/>
		<rect x="282.4" y="444.844" fill="#FFFFFF" width="3.705" height="4.67"/>
		<polygon fill="#FFFFFF" points="335.939,440.634 332.4,441.776 331.072,437.313 334.611,436.171 		"/>
		<polygon fill="#FFFFFF" points="371.927,419.396 368.964,421.714 366.269,417.979 369.23,415.659 		"/>
		<polygon fill="#FFFFFF" points="402.538,387.69 400.217,390.702 396.717,387.776 399.038,384.767 		"/>
		<polygon fill="#FFFFFF" points="424,343.105 422.635,346.696 418.461,344.977 419.824,341.386 		"/>
		
			<rect x="426.43" y="295.271" transform="matrix(-0.0063 -1 1 -0.0063 133.5571 727.7505)" fill="#FFFFFF" width="3.864" height="4.492"/>
		<polygon fill="#FFFFFF" points="422.664,248.717 423.846,252.382 419.586,253.872 418.404,250.207 		"/>
		<polygon fill="#FFFFFF" points="401.379,206.514 403.619,209.601 400.029,212.423 397.791,209.336 		"/>
		<path fill="#FFFFFF" d="M291.514,290.542l86.168-72.259l-3.987-4.086l-87.642,72.591c-0.77-0.197-1.571-0.313-2.401-0.313
			c-0.756,0-1.487,0.096-2.193,0.26l-59.894-41.367l-4.446,5.921l57.176,42.508c-0.185,0.747-0.295,1.525-0.295,2.329
			c0,0.209,0.019,0.414,0.032,0.619l-14.302,11.846l3.763,5.448l13.286-11.141c1.751,1.776,4.183,2.88,6.873,2.88
			c1.802,0,3.481-0.503,4.926-1.363l10.854,8.07l6.4-8.917l-12.624-8.719C292.997,293.257,292.402,291.791,291.514,290.542"/>
		<path fill="none" stroke="#8F9E94" stroke-width="2" stroke-miterlimit="10" d="M291.514,290.542l86.168-72.259l-3.987-4.086
			l-87.642,72.591c-0.77-0.197-1.571-0.313-2.401-0.313c-0.756,0-1.487,0.096-2.193,0.26l-59.894-41.367l-4.446,5.921l57.176,42.508
			c-0.185,0.747-0.295,1.525-0.295,2.329c0,0.209,0.019,0.414,0.032,0.619l-14.302,11.846l3.763,5.448l13.286-11.141
			c1.751,1.776,4.183,2.88,6.873,2.88c1.802,0,3.481-0.503,4.926-1.363l10.854,8.07l6.4-8.917l-12.624-8.719
			C292.997,293.257,292.402,291.791,291.514,290.542z"/>
		<polygon fill="none" stroke="#8F9D94" stroke-width="2" stroke-miterlimit="10" points="286.447,183.362 279.492,183.362 
			277.753,173.261 288.187,173.261 		"/>
		<polygon fill="none" stroke="#8F9D94" stroke-width="2" stroke-miterlimit="10" points="334.989,214.563 328.988,211.047 
			340.451,188.039 349.453,193.313 		"/>
		<polygon fill="none" stroke="#8F9D94" stroke-width="2" stroke-miterlimit="10" points="369.456,251.516 365.939,245.515 
			387.191,231.051 392.465,240.053 		"/>
		<polygon fill="none" stroke="#8F9D94" stroke-width="2" stroke-miterlimit="10" points="387.345,301.012 387.345,294.057 
			407.242,292.318 407.242,302.75 		"/>
		<polygon fill="none" stroke="#8F9D94" stroke-width="2" stroke-miterlimit="10" points="365.94,349.554 369.457,343.552 
			392.465,355.015 387.191,364.017 		"/>
		<polygon fill="none" stroke="#8F9D94" stroke-width="2" stroke-miterlimit="10" points="328.988,384.021 334.988,380.505 
			349.453,401.757 340.451,407.028 		"/>
		<polygon fill="none" stroke="#8F9D94" stroke-width="2" stroke-miterlimit="10" points="279.492,409.995 286.447,409.995 
			288.187,421.806 277.753,421.806 		"/>
		<polygon fill="none" stroke="#8F9D94" stroke-width="2" stroke-miterlimit="10" points="230.991,214.593 236.992,211.077 
			225.529,188.068 216.527,193.342 		"/>
		<polygon fill="none" stroke="#8F9D94" stroke-width="2" stroke-miterlimit="10" points="190.398,248.054 193.914,242.053 
			178.788,231.08 173.515,240.083 		"/>
		<polygon fill="none" stroke="#8F9D94" stroke-width="2" stroke-miterlimit="10" points="195.116,351.981 191.6,345.981 
			173.515,355.044 178.789,364.046 		"/>
		<polygon fill="none" stroke="#8F9D94" stroke-width="2" stroke-miterlimit="10" points="236.992,384.05 230.991,380.534 
			216.527,401.786 225.529,407.06 		"/>
		<line fill="#404345" x1="416.578" y1="179.673" x2="445.306" y2="228.172"/>
		
			<line fill="none" stroke="#FFFFFF" stroke-width="2" stroke-miterlimit="10" x1="470.932" y1="273.613" x2="470.932" y2="322.021"/>
		
			<line fill="none" stroke="#FFFFFF" stroke-width="2" stroke-miterlimit="10" x1="449.598" y1="278.317" x2="470.765" y2="278.317"/>
		
			<line fill="none" stroke="#FFFFFF" stroke-width="2" stroke-miterlimit="10" x1="450.598" y1="288.317" x2="470.765" y2="288.317"/>
		
			<line fill="none" stroke="#FFFFFF" stroke-width="2" stroke-miterlimit="10" x1="450.598" y1="298.317" x2="470.765" y2="298.317"/>
		
			<line fill="none" stroke="#FFFFFF" stroke-width="2" stroke-miterlimit="10" x1="450.598" y1="308.317" x2="470.765" y2="308.317"/>
		
			<line fill="none" stroke="#FFFFFF" stroke-width="2" stroke-miterlimit="10" x1="449.598" y1="318.317" x2="470.765" y2="318.317"/>
		
			<line fill="none" stroke="#FFFFFF" stroke-width="2" stroke-miterlimit="10" x1="447.018" y1="231.719" x2="417.107" y2="178.717"/>
		<path fill="#FFFFFF" d="M328.203,357.933c0,24.512-19.869,44.383-44.382,44.383c-24.511,0-44.381-19.871-44.381-44.383
			c0-24.51,19.87-44.381,44.381-44.381C308.334,313.551,328.203,333.422,328.203,357.933"/>
		<circle fill="none" stroke="#8F9E94" stroke-width="2" stroke-miterlimit="10" cx="283.822" cy="357.933" r="44.381"/>
		<path fill="#FFFFFF" d="M311.54,265.927l-3.962-3.526l-22.883,28.807c-1.33-0.308-2.787-0.257-4.55,1.649
			c-0.815,0.882-1.335,2.045-1.264,3.244c0.039,0.654,0.208,1.269,0.479,1.822l-73.75,94.847l1.066,0.85l76.018-93.154
			c0.392,0.079,0.793,0.126,1.211,0.102c2.621-0.152,4.623-2.402,4.472-5.024c-0.031-0.521-0.164-1.008-0.347-1.468L311.54,265.927z
			"/>
		<path fill="none" stroke="#8F9E94" stroke-width="2" stroke-miterlimit="10" d="M311.54,265.927l-3.962-3.526l-22.883,28.807
			c-1.33-0.308-2.787-0.257-4.55,1.649c-0.815,0.882-1.335,2.045-1.264,3.244c0.039,0.654,0.208,1.269,0.479,1.822l-73.75,94.847
			l1.066,0.85l76.018-93.154c0.392,0.079,0.793,0.126,1.211,0.102c2.621-0.152,4.623-2.402,4.472-5.024
			c-0.031-0.521-0.164-1.008-0.347-1.468L311.54,265.927z"/>
		<path fill="#8F9E94" d="M289.098,357.802c0-2.146-1.323-4.066-3.286-4.867v-24.092l-1.983-8.001l-1.996,8.001v24.092
			c-1.963,0.801-3.285,2.721-3.285,4.867c0,2.205,1.361,4.092,3.285,4.879v4.984l1.983,2.088l1.996-2.088v-4.984
			C287.735,361.894,289.098,360.005,289.098,357.802 M283.821,360.474c-1.473,0-2.672-1.197-2.672-2.672s1.199-2.674,2.672-2.674
			c1.474,0,2.673,1.199,2.673,2.674S285.295,360.474,283.821,360.474"/>
	</g>
</g>
<g id="Link_strap" display="none">
	<g display="inline">
		<path fill="#FFFFFF" d="M407.609,419.658l2.615,0.729c1.335,0.254,2.708-0.188,3.645-1.172l1.876-1.971l7.605,3.719
			c0,0,2.365-0.338,18.081-20.279c13.606-17.264,11.829-25.516,11.829-25.516l-8.618-6.422l0.428-1.346
			c0.462-1.453,0.06-3.041-1.039-4.096l-2.6-2.5l-4.563,2.197"/>
		<path fill="none" stroke="#8F9D94" stroke-width="2" stroke-miterlimit="10" d="M407.609,419.658l2.615,0.729
			c1.335,0.254,2.708-0.188,3.645-1.172l1.876-1.971l7.605,3.719c0,0,2.365-0.338,18.081-20.279
			c13.606-17.264,11.829-25.516,11.829-25.516l-8.618-6.422l0.428-1.346c0.462-1.453,0.06-3.041-1.039-4.096l-2.6-2.5l-4.563,2.197"
			/>
		<path fill="none" stroke="#8F9E94" stroke-width="2" stroke-miterlimit="10" d="M441.609,235.824c0,0,12.833,17.5,19.833,33.167
			l-12.5,4.5"/>
		<path fill="#FFFFFF" d="M442.609,361.492c0,0,13.167-16.334,18.833-32.834l-12.666-6.167"/>
		<path fill="none" stroke="#8F9D94" stroke-width="2" stroke-miterlimit="10" d="M442.609,361.492c0,0,13.167-16.334,18.833-32.834
			l-12.666-6.167"/>
		<path fill="none" stroke="#8F9E94" stroke-width="2" stroke-miterlimit="10" d="M454.776,325.317h9.038
			c3.455,0,7.105-4.942,7.105-4.942c2.998-5.738,4.843-13.502,4.843-22.058c0-8.557-1.845-16.32-4.843-22.059
			c0,0-3.65-4.941-7.105-4.941h-9.038"/>
		<path fill="#404344" d="M366.833,154.83c0,0,0.375-58.897-3.125-72.705c-3.5-13.807-36.649-12.931-36.649-12.931h-80.972
			c0,0-37.029-0.876-40.529,12.931c-3.5,13.808-2.645,71.796-2.645,71.796"/>
		<path fill="#404344" d="M202.028,440.445c0,0-0.375,58.898,3.125,72.705s36.648,12.932,36.648,12.932h80.973
			c0,0,37.028,0.875,40.528-12.932s2.646-71.797,2.646-71.797"/>
		<path fill="none" stroke="#FFFFFF" stroke-width="2" stroke-miterlimit="10" d="M366.276,133.391c0,0-40.165-7.912-40.165-8.428
			V99.677l-41.341-7.224l-41.321,7.224v25.286c0,0.516-40.165,8.428-40.165,8.428"/>
		
			<line fill="none" stroke="#FFFFFF" stroke-width="2" stroke-miterlimit="10" x1="284.751" y1="68.896" x2="284.751" y2="131.618"/>
		<path fill="none" stroke="#FFFFFF" stroke-width="2" stroke-miterlimit="10" d="M202.585,461.885c0,0,40.164,7.912,40.164,8.428
			v25.285l41.34,7.225l41.322-7.225v-25.285c0-0.516,40.165-8.428,40.165-8.428"/>
		
			<line fill="none" stroke="#FFFFFF" stroke-width="2" stroke-miterlimit="10" x1="284.109" y1="526.379" x2="284.109" y2="463.658"/>
		<path fill="#FFFFFF" d="M450.475,297.6c0,91.391-74.087,165.479-165.479,165.479c-91.391,0-165.478-74.088-165.478-165.479
			s74.087-165.479,165.478-165.479C376.388,132.121,450.475,206.209,450.475,297.6"/>
		<circle fill="none" stroke="#8F9D94" stroke-width="2" stroke-miterlimit="10" cx="284.996" cy="297.6" r="165.479"/>
		<circle fill="none" stroke="#8F9E94" stroke-width="2" stroke-miterlimit="10" cx="284" cy="357.934" r="44.381"/>
		<circle fill="none" stroke="#8F9E94" stroke-width="2" stroke-miterlimit="10" cx="284.996" cy="297.6" r="158.875"/>
		<circle fill="none" stroke="#8F9E94" stroke-width="2" stroke-miterlimit="10" cx="284.996" cy="297.6" r="136.516"/>
		<circle fill="none" stroke="#8F9E94" stroke-width="2" stroke-miterlimit="10" cx="284.996" cy="297.6" r="128.189"/>
		<path fill="#8F9E94" d="M289.216,230.955c0-2.146-1.323-4.065-3.286-4.866v-24.093l-1.982-8.001l-1.996,8.001v24.093
			c-1.963,0.801-3.286,2.72-3.286,4.866c0,2.205,1.361,4.093,3.286,4.88v4.984l1.982,2.088l1.996-2.088v-4.984
			C287.854,235.048,289.216,233.159,289.216,230.955 M283.94,233.628c-1.475,0-2.673-1.198-2.673-2.673
			c0-1.474,1.198-2.673,2.673-2.673c1.474,0,2.673,1.199,2.673,2.673C286.613,232.43,285.414,233.628,283.94,233.628"/>
		<circle fill="none" stroke="#8F9E94" stroke-width="2" stroke-miterlimit="10" cx="283.94" cy="231.087" r="44.382"/>
		<path fill="#FFFFFF" d="M270.822,294.587c0,28.931-23.452,52.382-52.383,52.382c-28.929,0-52.381-23.451-52.381-52.382
			c0-28.93,23.452-52.382,52.381-52.382C247.37,242.205,270.822,265.657,270.822,294.587"/>
		<circle fill="none" stroke="#8F9E94" stroke-width="2" stroke-miterlimit="10" cx="218.44" cy="294.587" r="52.382"/>
		<circle fill="none" stroke="#8F9D94" stroke-width="2" stroke-miterlimit="10" cx="218.44" cy="294.587" r="46.06"/>
		<path fill="#8F9E94" d="M224.667,294.432c0-2.534-1.563-4.799-3.878-5.744v-28.436l-2.341-9.442l-2.356,9.442v28.436
			c-2.316,0.945-3.878,3.21-3.878,5.744c0,2.602,1.607,4.83,3.878,5.76v5.883l2.341,2.464l2.356-2.464v-5.884
			C223.06,299.262,224.667,297.033,224.667,294.432 M218.439,297.586c-1.738,0-3.153-1.414-3.153-3.154
			c0-1.739,1.415-3.154,3.153-3.154c1.74,0,3.155,1.415,3.155,3.154C221.595,296.172,220.18,297.586,218.439,297.586"/>
		<path fill="#8F9E94" d="M289.275,357.803c0-2.148-1.322-4.066-3.285-4.867v-24.093l-1.983-8.001l-1.996,8.001v24.093
			c-1.963,0.801-3.286,2.719-3.286,4.867c0,2.205,1.362,4.092,3.286,4.879v4.984l1.983,2.088l1.996-2.088v-4.984
			C287.914,361.895,289.275,360.006,289.275,357.803 M284,360.475c-1.475,0-2.672-1.199-2.672-2.672
			c0-1.475,1.197-2.674,2.672-2.674c1.474,0,2.673,1.199,2.673,2.674C286.673,359.275,285.474,360.475,284,360.475"/>
		
			<rect x="353.902" y="282.847" fill="none" stroke="#8F9D94" stroke-width="2" stroke-miterlimit="10" width="29.262" height="23.691"/>
		<polygon fill="none" stroke="#8F9D94" stroke-width="2" stroke-miterlimit="10" points="321.138,276.63 321.138,286.5 
			321.138,287.242 321.138,295.313 334.074,301.567 347.012,295.313 347.012,276.63 		"/>
		<line fill="none" stroke="#8F9D94" stroke-width="2" stroke-miterlimit="10" x1="321.359" y1="288.04" x2="346.814" y2="288.04"/>
		<path fill="none" stroke="#8F9D94" stroke-width="2" stroke-miterlimit="10" d="M202.965,153.613V113.04
			c0-0.646-0.602-1.122-1.229-0.974c0,0-19.003,11.445-19.129,11.734l-40.152,89.084"/>
		<path fill="none" stroke="#8F9D94" stroke-width="2" stroke-miterlimit="10" d="M418.146,199.406l-31.201-75.605
			c-0.126-0.289-19.129-11.734-19.129-11.734c-0.629-0.148-1.229,0.329-1.229,0.973v40.574"/>
		<path fill="#FFFFFF" d="M291.691,290.542l86.168-72.26l-3.987-4.086l-87.642,72.592c-0.769-0.197-1.571-0.313-2.401-0.313
			c-0.755,0-1.486,0.096-2.191,0.26l-59.896-41.366l-4.445,5.921l57.176,42.508c-0.186,0.747-0.294,1.524-0.294,2.329
			c0,0.209,0.018,0.414,0.031,0.619l-14.303,11.846l3.764,5.448l13.285-11.142c1.752,1.776,4.183,2.88,6.873,2.88
			c1.803,0,3.483-0.503,4.927-1.362l10.855,8.069l6.399-8.917l-12.624-8.719C293.176,293.258,292.58,291.791,291.691,290.542"/>
		<path fill="none" stroke="#8F9E94" stroke-width="2" stroke-miterlimit="10" d="M291.691,290.542l86.168-72.26l-3.987-4.086
			l-87.642,72.592c-0.769-0.197-1.571-0.313-2.401-0.313c-0.755,0-1.486,0.096-2.191,0.26l-59.896-41.366l-4.445,5.921
			l57.176,42.508c-0.186,0.747-0.294,1.524-0.294,2.329c0,0.209,0.018,0.414,0.031,0.619l-14.303,11.846l3.764,5.448l13.285-11.142
			c1.752,1.776,4.183,2.88,6.873,2.88c1.803,0,3.483-0.503,4.927-1.362l10.855,8.069l6.399-8.917l-12.624-8.719
			C293.176,293.258,292.58,291.791,291.691,290.542z"/>
		<polygon fill="none" stroke="#8F9D94" stroke-width="2" stroke-miterlimit="10" points="286.626,183.362 279.671,183.362 
			277.932,173.262 288.364,173.262 		"/>
		<polygon fill="none" stroke="#8F9D94" stroke-width="2" stroke-miterlimit="10" points="335.167,214.563 329.166,211.048 
			340.629,188.038 349.632,193.313 		"/>
		<polygon fill="none" stroke="#8F9D94" stroke-width="2" stroke-miterlimit="10" points="369.635,251.517 366.118,245.516 
			387.37,231.052 392.644,240.054 		"/>
		<polygon fill="none" stroke="#8F9D94" stroke-width="2" stroke-miterlimit="10" points="387.523,301.012 387.523,294.057 
			407.421,292.317 407.421,302.751 		"/>
		<polygon fill="none" stroke="#8F9D94" stroke-width="2" stroke-miterlimit="10" points="366.119,349.553 369.635,343.552 
			392.644,355.016 387.37,364.018 		"/>
		<polygon fill="none" stroke="#8F9D94" stroke-width="2" stroke-miterlimit="10" points="329.166,384.021 335.167,380.504 
			349.631,401.756 340.629,407.029 		"/>
		<polygon fill="none" stroke="#8F9D94" stroke-width="2" stroke-miterlimit="10" points="279.671,409.994 286.626,409.994 
			288.364,421.807 277.932,421.807 		"/>
		<polygon fill="none" stroke="#8F9D94" stroke-width="2" stroke-miterlimit="10" points="231.169,214.593 237.17,211.077 
			225.707,188.068 216.705,193.342 		"/>
		<polygon fill="none" stroke="#8F9D94" stroke-width="2" stroke-miterlimit="10" points="190.576,248.055 194.093,242.054 
			178.966,231.08 173.693,240.082 		"/>
		<polygon fill="none" stroke="#8F9D94" stroke-width="2" stroke-miterlimit="10" points="195.294,351.982 191.777,345.98 
			173.692,355.045 178.967,364.047 		"/>
		<polygon fill="none" stroke="#8F9D94" stroke-width="2" stroke-miterlimit="10" points="237.171,384.051 231.17,380.535 
			216.706,401.787 225.708,407.059 		"/>
		<path fill="none" stroke="#8F9D94" stroke-width="2" stroke-miterlimit="10" d="M437.88,234.086l4.563,2.197l2.6-2.5
			c1.1-1.056,1.502-2.645,1.04-4.096l-0.429-1.347l8.618-6.422c0,0,1.777-8.252-11.829-25.517
			c-15.715-19.94-18.081-20.278-18.081-20.278l-7.604,3.718l-1.876-1.97c-0.938-0.984-2.31-1.425-3.645-1.171l-1.408,0.268"/>
		<path fill="none" stroke="#8F9D94" stroke-width="2" stroke-miterlimit="10" d="M365.896,441.662v40.574
			c0,0.645,0.602,1.121,1.229,0.973c0,0,19.003-11.445,19.129-11.734l29.856-72.816"/>
		<path fill="none" stroke="#8F9D94" stroke-width="2" stroke-miterlimit="10" d="M138.859,375.658l43.058,95.816
			c0.126,0.289,19.129,11.736,19.129,11.736c0.628,0.146,1.229-0.33,1.229-0.975v-40.574"/>
		<path fill="#FFFFFF" d="M311.718,265.928l-3.961-3.526l-22.883,28.807c-1.33-0.308-2.788-0.257-4.55,1.649
			c-0.816,0.882-1.335,2.045-1.265,3.244c0.039,0.654,0.209,1.269,0.48,1.822l-73.75,94.848l1.066,0.85l76.017-93.154
			c0.392,0.078,0.793,0.126,1.211,0.102c2.622-0.152,4.624-2.402,4.472-5.024c-0.03-0.521-0.164-1.008-0.347-1.468L311.718,265.928z
			"/>
		<path fill="none" stroke="#8F9E94" stroke-width="2" stroke-miterlimit="10" d="M311.718,265.928l-3.961-3.526l-22.883,28.807
			c-1.33-0.308-2.788-0.257-4.55,1.649c-0.816,0.882-1.335,2.045-1.265,3.244c0.039,0.654,0.209,1.269,0.48,1.822l-73.75,94.848
			l1.066,0.85l76.017-93.154c0.392,0.078,0.793,0.126,1.211,0.102c2.622-0.152,4.624-2.402,4.472-5.024
			c-0.03-0.521-0.164-1.008-0.347-1.468L311.718,265.928z"/>
	</g>
</g>
<g id="Aquaracer_dial" display="none">
	<g display="inline">
		<path fill="#404344" d="M411.857,300.938v-20.881h-12.125c-4.838-51.614-45.131-92.922-96.278-99.313l3.839-10.508h-38.32
			l3.979,10.892c-50.351,7.599-89.574,49.128-93.637,100.555l-13.277-1.33v20.319l13.279-1.33
			c1.098,13.886,4.771,27.039,10.521,39.009l-0.24,0.107c2.392,5.029,5.146,9.853,8.238,14.429l0.266-0.191
			c4.721,6.932,10.196,13.307,16.328,18.988l-1.929,3.012l2.813-2.225c3.746,3.396,7.727,6.535,11.913,9.398l-0.265,0.369
			c4.506,3.098,9.251,5.873,14.206,8.289l0.196-0.436c11.63,5.645,24.395,9.313,37.862,10.564l-1.255,12.537h20.32l-1.232-12.299
			c14.345-0.957,27.939-4.645,40.271-10.551l0.184,0.404c4.982-2.398,9.756-5.164,14.289-8.256l-0.236-0.328
			c11.684-7.916,21.773-18.006,29.688-29.691l0.213,0.152c3.098-4.609,5.852-9.468,8.236-14.534l-0.17-0.077
			c5.436-11.417,8.975-23.91,10.205-37.075H411.857z"/>
		<path fill="none" stroke="#8F9D94" stroke-width="1.5" stroke-miterlimit="10" d="M370.254,151.466c0,0-1.625-54.863-5.125-67.725
			c-3.5-12.859-7.625-14.835-7.625-14.835h-141.5c0,0-4.125,1.976-7.625,14.835c-3.5,12.861-4.125,67.725-4.125,67.725"/>
		<circle fill="none" stroke="#8F9D94" stroke-width="1.5" stroke-miterlimit="10" cx="288.504" cy="289.512" r="129.5"/>
		<polygon fill="none" stroke="#8F9D94" stroke-width="2" stroke-miterlimit="10" points="244.612,451.012 169.676,407.282 
			126.14,332.153 126.14,246.369 169.676,171.99 244.612,129.012 330.396,129.012 404.467,171.99 447.141,246.369 447.141,332.153 
			404.467,407.282 330.396,451.012 		"/>
		<path fill="none" stroke="#8F9D94" stroke-width="2" stroke-miterlimit="10" d="M206.004,479.104c0,0-2.161,2.889-4.396,1.623
			c-0.784-0.445-21.796-12.361-21.796-12.361s-3.674-0.668-8.79-16.883c-22.5-71.292-56.764-122.105-56.764-122.105
			c-1.525-2.69-3.119-9.903-3.119-16.896v-47.07c0-6.993,1.572-14.202,3.099-16.892c0,0,33.675-56.008,56.525-116.103
			c6.044-15.891,8.857-16.872,8.857-16.872s21.149-11.901,21.933-12.347c2.235-1.265,4.424,1.657,4.424,1.657"/>
		<path fill="none" stroke="#8F9D94" stroke-width="2" stroke-miterlimit="10" d="M368.887,106.164c0,0,3.779-4.272,6.014-3.007
			c0.785,0.444,19.75,12.366,19.75,12.366s3.016,0.884,8.766,16.884c3.883,10.803,23.104,63.486,33.088,82.104
			c9.406,17.54,21.277,29.505,21.277,29.505s5.359,4.328,6.359,11.661v8.334l-16.568,9.896"/>
		<path fill="none" stroke="#8F9D94" stroke-width="2" stroke-miterlimit="10" d="M369.324,476c0,0,3.342,3.854,5.576,2.588
			c0.785-0.445,19.75-12.367,19.75-12.367s3.016-0.883,8.766-16.883c3.883-10.803,23.104-63.487,33.088-82.106
			c9.406-17.539,21.277-29.504,21.277-29.504s5.357-4.329,6.357-11.662v-8.333l-16.566-9.896"/>
		<path fill="none" stroke="#8F9D94" stroke-width="2" stroke-miterlimit="10" d="M462.141,266.012h12.613
			c3.459,0,9.387,4.5,9.387,13.667v28.333c0,7.333-4.637,13-8.303,13h-11.697"/>
		<path fill="none" stroke="#8F9D94" stroke-width="2" stroke-miterlimit="10" d="M372.463,425.99c0,0-3.584,73.795-7.084,86.139
			s-7.625,14.24-7.625,14.24h-140.5c0,0-4.125-1.896-7.625-14.24s-7.125-85.818-7.125-85.818"/>
		<path fill="none" stroke="#FFFFFF" stroke-width="1.5" stroke-miterlimit="10" d="M303.264,180.716
			c51.367,6.329,91.836,47.868,96.514,99.729"/>
		<path fill="none" stroke="#FFFFFF" stroke-width="1.5" stroke-miterlimit="10" d="M179.298,281.86
			c3.989-51.575,43.344-93.236,93.845-100.766"/>
		<path fill="none" stroke="#FFFFFF" stroke-width="1.5" stroke-miterlimit="10" d="M279.602,400.698
			c-53.606-4.801-96.2-47.836-100.313-101.639"/>
		<path fill="none" stroke="#FFFFFF" stroke-width="1.5" stroke-miterlimit="10" d="M399.775,300.584
			c-4.873,53.989-48.531,96.79-102.896,100.323"/>
		<polygon fill="none" stroke="#FFFFFF" stroke-width="1.5" stroke-miterlimit="10" points="271.345,219.602 271.345,230.861 
			271.345,231.709 271.345,238.634 287.787,248.051 304.229,238.634 304.229,219.602 		"/>
		<polygon fill="none" stroke="#FFFFFF" stroke-width="1.5" stroke-miterlimit="10" points="293.293,208.556 282.973,208.556 
			268.973,170.235 307.293,170.235 		"/>
		<polygon fill="none" stroke="#FFFFFF" stroke-width="1.5" stroke-miterlimit="10" points="282.973,363.259 293.293,363.259 
			298.293,413.192 277.973,413.192 		"/>
		<path fill="none" stroke="#FFFFFF" stroke-width="1.5" stroke-miterlimit="10" d="M360.566,324.945l-5.16,8.938l26.063,18.741
			c3.098-4.61,5.852-9.469,8.236-14.535L360.566,324.945z"/>
		<path fill="none" stroke="#FFFFFF" stroke-width="1.5" stroke-miterlimit="10" d="M360.789,256.395l28.686-12.94
			c-2.395-5.021-5.154-9.835-8.25-14.404l-25.596,18.406L360.789,256.395z"/>
		<path fill="none" stroke="#FFFFFF" stroke-width="1.5" stroke-miterlimit="10" d="M334.248,224.57l17.85-24.82
			c-4.502-3.09-9.242-5.858-14.191-8.265l-12.596,27.925L334.248,224.57z"/>
		<path fill="none" stroke="#FFFFFF" stroke-width="1.5" stroke-miterlimit="10" d="M324.762,362.474l12.754,28.275
			c4.982-2.4,9.756-5.166,14.289-8.258l-18.105-25.177L324.762,362.474z"/>
		<path fill="none" stroke="#FFFFFF" stroke-width="1.5" stroke-miterlimit="10" d="M223.727,248.001l-25.993-18.691
			c-3.099,4.603-5.856,9.453-8.246,14.512l29.079,13.118L223.727,248.001z"/>
		<path fill="none" stroke="#FFFFFF" stroke-width="1.5" stroke-miterlimit="10" d="M218.345,325.49l-28.746,12.967
			c2.391,5.03,5.146,9.853,8.238,14.429l25.668-18.458L218.345,325.49z"/>
		<path fill="none" stroke="#FFFFFF" stroke-width="1.5" stroke-miterlimit="10" d="M244.885,357.314l-17.923,24.923
			c4.506,3.098,9.252,5.873,14.207,8.289l12.654-28.053L244.885,357.314z"/>
		<path fill="none" stroke="#FFFFFF" stroke-width="1.5" stroke-miterlimit="10" d="M254.372,219.41l-12.697-28.146
			c-4.976,2.394-9.743,5.15-14.271,8.232l18.03,25.074L254.372,219.41z"/>
		<polygon fill="none" stroke="#FFFFFF" stroke-width="1.5" stroke-miterlimit="10" points="215.971,285.352 215.971,295.671 
			166.037,300.671 166.037,280.352 		"/>
		<path fill="none" stroke="#FFFFFF" stroke-width="1.5" stroke-miterlimit="10" d="M389.717,273.935l-0.754-1.018h-1.053h-31.229
			h-1.055l-0.75,1.018c-7.137,9.662-7.268,22.813-0.33,32.616l1.08,1.526h1.055h31.229h1.053l1.08-1.526
			C396.984,296.747,396.852,283.597,389.717,273.935z"/>
		<path fill="none" stroke="#FFFFFF" stroke-width="1.5" stroke-miterlimit="10" d="M393.229,280.057
			c2.699,6.686,2.701,14.186-0.016,20.881h18.643v-20.881H393.229z"/>
		
			<line fill="none" stroke="#FFFFFF" stroke-width="1.5" stroke-miterlimit="10" x1="271.627" y1="231.478" x2="303.979" y2="231.478"/>
		<path fill="#FFFFFF" d="M368.287,229.096l-69.535,45.1l2.826,4.409l-8.104,5.196c-1.327-0.828-2.89-1.314-4.569-1.314
			c-1.803,0-3.476,0.551-4.861,1.493l-7.502-5.11l2.949-4.33l-36.884-25.086l-11.285,3.262l1.455,11.17l36.884,25.086l2.949-4.329
			l7.732,5.267c-0.059,0.405-0.1,0.817-0.1,1.238c0,4.783,3.879,8.661,8.662,8.661s8.66-3.878,8.66-8.661
			c0-0.538-0.057-1.064-0.15-1.575l7.935-5.087l2.827,4.41l69.535-45.099l1.424-11.661L368.287,229.096z"/>
		<path fill="none" stroke="#FFFFFF" stroke-width="1.5" stroke-miterlimit="10" d="M368.287,229.096l-69.535,45.1l2.826,4.409
			l-8.104,5.196c-1.327-0.828-2.89-1.314-4.569-1.314c-1.803,0-3.476,0.551-4.861,1.493l-7.502-5.11l2.949-4.33l-36.884-25.086
			l-11.285,3.262l1.455,11.17l36.884,25.086l2.949-4.329l7.732,5.267c-0.059,0.405-0.1,0.817-0.1,1.238
			c0,4.783,3.879,8.661,8.662,8.661s8.66-3.878,8.66-8.661c0-0.538-0.057-1.064-0.15-1.575l7.935-5.087l2.827,4.41l69.535-45.099
			l1.424-11.661L368.287,229.096z"/>
		<path fill="#FFFFFF" d="M319.82,262.467l-6.318-5.721l-21.66,27.418l-2.043,2.293c-0.398-0.11-0.814-0.178-1.25-0.156
			c-2.179,0.108-3.855,1.962-3.746,4.14c0.021,0.458,0.137,0.886,0.301,1.288l-51.92,58.279l-3.227-2.573l-17.455,27.26
			l25.389-20.079l-2.881-2.954l52.932-57.565c0.322,0.066,0.654,0.108,1,0.092c2.178-0.108,3.855-1.962,3.746-4.14
			c-0.016-0.324-0.08-0.633-0.17-0.931l2.18-2.37L319.82,262.467z"/>
		<path fill="none" stroke="#FFFFFF" stroke-width="1.5" stroke-miterlimit="10" d="M319.82,262.467l-6.318-5.721l-21.66,27.418
			l-2.043,2.293c-0.398-0.11-0.814-0.178-1.25-0.156c-2.179,0.108-3.855,1.962-3.746,4.14c0.021,0.458,0.137,0.886,0.301,1.288
			l-51.92,58.279l-3.227-2.573l-17.455,27.26l25.389-20.079l-2.881-2.954l52.932-57.565c0.322,0.066,0.654,0.108,1,0.092
			c2.178-0.108,3.855-1.962,3.746-4.14c-0.016-0.324-0.08-0.633-0.17-0.931l2.18-2.37L319.82,262.467z"/>
	</g>
</g>
<g id="Aquaracer_case">
	<g>
		<polyline fill="none" stroke="#FFFFFF" stroke-width="2" stroke-miterlimit="10" points="469,325.765 469,317.485 
			450.332,305.765 		"/>
		<polyline fill="none" stroke="#FFFFFF" stroke-width="2" stroke-miterlimit="10" points="469,256.765 469,265.044 
			450.332,276.765 		"/>
		<path fill="#404344" d="M189.713,432.839c-0.231-0.855-0.116-1.748,0.323-2.512l2.802-4.871
			c-13.994-9.082-22.304-16.154-22.387-16.225l-0.079-0.086c-0.135-0.184-13.587-18.658-25.868-40.428
			c-12.283-21.774-17.463-34.437-17.514-34.562l-0.036-0.188v-24.564h-8.912c-1.827,0-3.313-1.485-3.313-3.312v-30.658
			c0-1.826,1.486-3.313,3.313-3.313h8.912l0.037-23.634c0.069-0.17,7.078-17.319,16.939-36.483
			c9.88-19.2,26.308-37.638,26.473-37.821c0.144-0.123,8.542-6.817,21.06-14.794l-3.936-6.841c-0.91-1.584-0.363-3.613,1.22-4.524
			l17.674-11.317l1.5-29.698c0,0,0.121-6.068-5.271-2.851c-0.773,0.462-26.973,12.347-26.973,12.347s-3.819,0.658-8.936,16.873
			c-22.5,71.291-52.685,122.101-52.685,122.101c-1.526,2.691-3.416,9.9-3.416,16.893v41.069c0,6.993,1.911,14.206,3.437,16.897
			c0,0,30.581,50.813,53.081,122.105c5.117,16.213,8.79,16.881,8.79,16.881s26.012,11.918,26.796,12.361
			c2.234,1.266,5.351-2.758,5.351-2.758l-3.466-36.428l-13.373-7.648C190.492,434.409,189.944,433.696,189.713,432.839"/>
		<path fill="#404344" d="M475.891,267.97h-11.25v-11.333c-1-7.334-6.041-11.661-6.041-11.661s-11.555-11.966-20.959-29.506
			c-9.984-18.617-29.205-71.302-33.088-82.104c-5.75-16-8.768-16.884-8.768-16.884s-21.242-12.495-22.023-12.942
			c-4.047-2.312-4.203,3.323-4.203,3.323l2.166,31.605l16.549,10.288c0.76,0.446,1.303,1.164,1.525,2.022
			c0.225,0.858,0.102,1.75-0.344,2.511l-3.959,6.753c11.951,7.685,19.904,14.021,19.984,14.083
			c0.225,0.241,16.676,18.677,26.557,37.878c9.859,19.163,16.916,36.312,16.986,36.482l0.037,0.189v85.392l-0.037,0.091
			c-0.051,0.125-5.279,12.787-17.561,34.56c-12.281,21.771-25.781,40.244-25.916,40.428l-0.076,0.084
			c-0.066,0.057-6.574,5.602-17.734,13.145l4.227,7.209c0.926,1.576,0.395,3.611-1.182,4.535l-17.467,10.24l-2.104,31.572
			c0,0,3.598,5.992,7.537,3.531c0.766-0.479,17.037-12.283,17.037-12.283s3.018-0.883,8.768-16.883
			c3.883-10.803,23.104-63.486,33.088-82.104c9.404-17.541,20.959-29.506,20.959-29.506s5.041-4.328,6.041-11.662v-4.023v-0.031
			h12.332c3.668,0,7.668-6.667,7.668-14v-28.333C484.641,271.47,479.348,267.97,475.891,267.97"/>
		<path fill="none" stroke="#8F9D94" stroke-width="1.5" stroke-miterlimit="10" d="M372.379,150.967c0,0-1.625-54.863-5.125-67.725
			c-3.5-12.859-7.625-14.835-7.625-14.835h-141.5c0,0-4.125,1.976-7.625,14.835c-3.5,12.861-4.125,67.725-4.125,67.725"/>
		<path fill="none" stroke="#8F9D94" stroke-width="2" stroke-miterlimit="10" d="M374.586,426.491c0,0-3.582,73.793-7.082,86.139
			c-3.5,12.344-7.625,14.238-7.625,14.238h-140.5c0,0-4.125-1.895-7.625-14.238c-3.5-12.346-7.125-85.818-7.125-85.818"/>
		<circle fill="none" stroke="#FFFFFF" stroke-width="2" stroke-miterlimit="10" cx="289.264" cy="290.013" r="129.5"/>
		<polyline fill="none" stroke="#FFFFFF" stroke-width="2" stroke-miterlimit="10" points="466.264,331.491 466.264,323.213 
			447.598,311.491 		"/>
		<polyline fill="none" stroke="#FFFFFF" stroke-width="2" stroke-miterlimit="10" points="466.264,258.513 466.264,266.791 
			447.598,278.513 		"/>
		<path fill="none" stroke="#8F9D94" stroke-width="1.5" stroke-miterlimit="10" d="M302.023,181.217
			c51.369,6.329,91.836,47.868,96.512,99.729"/>
		<path fill="none" stroke="#8F9D94" stroke-width="1.5" stroke-miterlimit="10" d="M178.058,282.361
			c3.989-51.575,43.344-93.236,93.845-100.765"/>
		<path fill="none" stroke="#8F9D94" stroke-width="1.5" stroke-miterlimit="10" d="M278.362,401.198
			c-53.606-4.799-96.2-47.836-100.312-101.638"/>
		<path fill="none" stroke="#8F9D94" stroke-width="1.5" stroke-miterlimit="10" d="M398.535,301.085
			c-4.873,53.989-48.531,96.791-102.895,100.324"/>
		<polygon fill="none" stroke="#8F9D94" stroke-width="1.5" stroke-miterlimit="10" points="270.105,220.103 270.105,231.362 
			270.105,232.21 270.105,239.135 286.546,248.552 302.988,239.135 302.988,220.103 		"/>
		<polygon fill="none" stroke="#8F9D94" stroke-width="1.5" stroke-miterlimit="10" points="292.053,209.057 281.733,209.057 
			267.733,170.736 306.053,170.736 		"/>
		<polygon fill="none" stroke="#8F9D94" stroke-width="1.5" stroke-miterlimit="10" points="281.733,363.761 292.053,363.761 
			297.053,413.694 276.733,413.694 		"/>
		<path fill="none" stroke="#8F9D94" stroke-width="1.5" stroke-miterlimit="10" d="M359.326,325.446l-5.16,8.938l26.063,18.74
			c3.098-4.609,5.852-9.468,8.236-14.534L359.326,325.446z"/>
		<path fill="none" stroke="#8F9D94" stroke-width="1.5" stroke-miterlimit="10" d="M359.549,256.896l28.686-12.94
			c-2.395-5.021-5.154-9.835-8.25-14.403l-25.596,18.405L359.549,256.896z"/>
		<path fill="none" stroke="#8F9D94" stroke-width="1.5" stroke-miterlimit="10" d="M333.008,225.071l17.85-24.82
			c-4.502-3.09-9.242-5.858-14.191-8.265l-12.596,27.925L333.008,225.071z"/>
		<path fill="none" stroke="#8F9D94" stroke-width="1.5" stroke-miterlimit="10" d="M323.521,362.976l12.754,28.273
			c4.982-2.398,9.756-5.166,14.289-8.256l-18.105-25.178L323.521,362.976z"/>
		<path fill="none" stroke="#8F9D94" stroke-width="1.5" stroke-miterlimit="10" d="M222.487,248.502l-25.993-18.692
			c-3.099,4.604-5.856,9.454-8.246,14.513l29.079,13.118L222.487,248.502z"/>
		<path fill="none" stroke="#8F9D94" stroke-width="1.5" stroke-miterlimit="10" d="M217.105,325.991l-28.746,12.967
			c2.391,5.029,5.145,9.852,8.238,14.429l25.668-18.458L217.105,325.991z"/>
		<path fill="none" stroke="#8F9D94" stroke-width="1.5" stroke-miterlimit="10" d="M243.646,357.814l-17.923,24.925
			c4.506,3.098,9.252,5.873,14.207,8.289l12.654-28.053L243.646,357.814z"/>
		<path fill="none" stroke="#8F9D94" stroke-width="1.5" stroke-miterlimit="10" d="M253.132,219.911l-12.697-28.146
			c-4.976,2.394-9.743,5.15-14.272,8.232l18.031,25.074L253.132,219.911z"/>
		<polygon fill="none" stroke="#8F9D94" stroke-width="1.5" stroke-miterlimit="10" points="214.731,285.853 214.731,296.172 
			164.797,301.172 164.797,280.853 		"/>
		<path fill="none" stroke="#8F9D94" stroke-width="1.5" stroke-miterlimit="10" d="M388.477,274.436l-0.752-1.018h-1.055h-31.229
			h-1.053l-0.752,1.018c-7.137,9.662-7.268,22.813-0.328,32.616l1.08,1.526h1.053h31.229h1.055l1.08-1.526
			C395.744,297.248,395.611,284.098,388.477,274.436z"/>
		<path fill="none" stroke="#8F9D94" stroke-width="1.5" stroke-miterlimit="10" d="M391.99,280.558
			c2.697,6.686,2.699,14.186-0.018,20.881h18.645v-20.881H391.99z"/>
		
			<line fill="none" stroke="#8F9D94" stroke-width="1.5" stroke-miterlimit="10" x1="270.388" y1="231.979" x2="302.738" y2="231.979"/>
		<path fill="#FFFFFF" d="M367.047,229.597l-69.535,45.1l2.827,4.409l-8.105,5.196c-1.327-0.828-2.89-1.314-4.57-1.314
			c-1.802,0-3.475,0.551-4.861,1.493l-7.501-5.11l2.949-4.33l-36.884-25.086l-11.285,3.262l1.455,11.17l36.884,25.086l2.949-4.329
			l7.732,5.267c-0.058,0.405-0.099,0.817-0.099,1.238c0,4.783,3.878,8.661,8.661,8.661c4.783,0,8.66-3.878,8.66-8.661
			c0-0.538-0.056-1.064-0.15-1.575l7.936-5.087l2.826,4.41l69.535-45.099l1.424-11.661L367.047,229.597z"/>
		<path fill="none" stroke="#8F9D94" stroke-width="1.5" stroke-miterlimit="10" d="M367.047,229.597l-69.535,45.1l2.827,4.409
			l-8.105,5.196c-1.327-0.828-2.89-1.314-4.57-1.314c-1.802,0-3.475,0.551-4.861,1.493l-7.501-5.11l2.949-4.33l-36.884-25.086
			l-11.285,3.262l1.455,11.17l36.884,25.086l2.949-4.329l7.732,5.267c-0.058,0.405-0.099,0.817-0.099,1.238
			c0,4.783,3.878,8.661,8.661,8.661c4.783,0,8.66-3.878,8.66-8.661c0-0.538-0.056-1.064-0.15-1.575l7.936-5.087l2.826,4.41
			l69.535-45.099l1.424-11.661L367.047,229.597z"/>
		<path fill="#FFFFFF" d="M318.582,262.968l-6.32-5.721l-21.66,27.418l-2.043,2.293c-0.399-0.11-0.815-0.178-1.251-0.156
			c-2.178,0.108-3.855,1.962-3.746,4.14c0.022,0.458,0.137,0.886,0.301,1.288l-51.919,58.278l-3.227-2.572l-17.455,27.261
			l25.389-20.08l-2.881-2.955l52.931-57.564c0.323,0.066,0.655,0.108,1.001,0.092c2.177-0.108,3.855-1.962,3.746-4.14
			c-0.016-0.324-0.081-0.633-0.17-0.931l2.179-2.369L318.582,262.968z"/>
		<path fill="none" stroke="#8F9D94" stroke-width="1.5" stroke-miterlimit="10" d="M318.582,262.968l-6.32-5.721l-21.66,27.418
			l-2.043,2.293c-0.399-0.11-0.815-0.178-1.251-0.156c-2.178,0.108-3.855,1.962-3.746,4.14c0.022,0.458,0.137,0.886,0.301,1.288
			l-51.919,58.278l-3.227-2.572l-17.455,27.261l25.389-20.08l-2.881-2.955l52.931-57.564c0.323,0.066,0.655,0.108,1.001,0.092
			c2.177-0.108,3.855-1.962,3.746-4.14c-0.016-0.324-0.081-0.633-0.17-0.931l2.179-2.369L318.582,262.968z"/>
		<path fill="#404344" d="M431.244,211.96c-9.965-19.365-26.424-37.716-26.424-37.716s-8.051-6.436-20.348-14.312l4.203-7.167
			c0.783-1.336,0.33-3.067-1.004-3.85l-26.447-15.506c-1.334-0.783-3.066-0.331-3.85,1.003l-4.537,7.74
			c-13.207-6.715-22.576-10.851-22.576-10.851v-0.001c0,0-10.16-2.256-43.627-2.256c-33.466,0-41.666,2.256-41.666,2.256
			s-8.858,3.911-21.491,10.303l-4.413-7.671c-0.771-1.342-2.5-1.808-3.841-1.035l-26.575,15.286c-1.341,0.771-1.807,2.5-1.035,3.841
			l4.173,7.256c-12.865,8.169-21.358,14.962-21.358,14.962s-16.437,18.352-26.401,37.717c-9.965,19.365-16.921,36.444-16.921,36.444
			v23.945h-9.413c-1.547,0-2.812,1.266-2.812,2.813v30.658c0,1.547,1.265,2.813,2.812,2.813h9.413v25.063
			c0,0,5.076,12.505,17.485,34.502c12.409,21.998,25.837,40.379,25.837,40.379s8.362,7.15,22.732,16.443l-3.038,5.283
			c-0.772,1.34-0.306,3.068,1.035,3.84l26.575,15.287c1.341,0.771,3.07,0.307,3.841-1.035l3.148-5.473
			c11.807,5.889,20.247,9.318,20.247,9.318h85.19h0.098c0,0,10.881-4.422,25.221-11.846l4.408,7.52
			c0.783,1.334,2.514,1.787,3.848,1.004l26.449-15.506c1.334-0.783,1.785-2.516,1.004-3.85l-4.465-7.615
			c11.504-7.75,18.076-13.369,18.076-13.369s13.475-18.383,25.883-40.379c12.41-21.999,17.533-34.504,17.533-34.504v-85.292
			C448.213,248.404,441.209,231.326,431.244,211.96 M288.609,420.056c-71.111,0-128.758-57.646-128.758-128.758
			c0-71.11,57.647-128.758,128.758-128.758c71.111,0,128.758,57.647,128.758,128.758
			C417.367,362.409,359.721,420.056,288.609,420.056"/>
		<path fill="#FFFFFF" d="M148.199,217.415l2.88,2.006l-9.152,15.674l3.817,2.153c0,0,1.758-6.344,3.008-8.556
			c1.222-2.162,4.136-6.485,5.734-7.237c0.838-0.395,3.847-1.599,7.051,1.033c3.203,2.632,2.977,6.106,1.504,9.684
			c-1.316,3.196-6.487,11.28-6.487,11.28s-2.82,5.452-9.024,3.572c-0.09-0.027,3.778-6.209,3.778-6.209s1.88,0.492,2.99-0.936
			c1.842-2.37,4.137-6.017,4.137-8.648c0-1.901-1.824-2.477-3.197-2.82c-1.373-0.344-2.726,1.504-4.042,3.761
			c-1.878,3.219-2.862,7.271-2.862,7.271l-3.089,5.034l-9.268-5.034L148.199,217.415z"/>
		<path fill="#FFFFFF" d="M180.525,195.791c-0.376-1.692-3.96-3.925-6.204-5.077c-3.525-1.809-5.378-1.972-7.564-0.914
			c-2.14,1.035-7.444,9.134-7.444,9.134c-3.572,5.829-4.989,8.542-4.909,10.663c0.081,2.121,2.898,6.948,9.012,8.943
			c5.547,1.811,8.148-2.336,9.025-3.571c1.034-1.457,5.828-9.025,7.52-11.846C181.654,200.304,180.902,197.483,180.525,195.791
			 M175.034,204.403c-1.619,2.447-4.379,7.134-5.084,7.486s-2.397,0.705-3.878-0.142c-1.481-0.846-5.065-3.725-5.499-4.16
			c-0.363-0.362-1.058-2.185-0.353-3.877c0,0,4.653-7.191,5.076-7.333c0.423-0.141,1.48-1.479,4.019,0.071s5.842,4.177,5.842,4.177
			S176.717,201.858,175.034,204.403"/>
		<path fill="#FFFFFF" d="M414.627,208.766c-1.654-0.521-5.379,1.47-7.498,2.838c-3.328,2.149-4.395,3.673-4.57,6.095
			c-0.174,2.372,4.191,11.013,4.191,11.013c3.264,6.006,4.906,8.59,6.785,9.58c1.877,0.988,7.467,0.962,12.25-3.339
			c4.338-3.899,2.047-8.224,1.414-9.602c-0.746-1.624-4.904-9.558-6.502-12.433S416.281,209.285,414.627,208.766 M419.344,217.825
			c1.311,2.625,3.99,7.358,3.943,8.146c-0.047,0.786-0.586,2.428-2.059,3.288c-1.473,0.859-5.758,2.525-6.352,2.685
			c-0.496,0.133-2.422-0.176-3.535-1.632c0,0-3.904-7.624-3.814-8.061c0.088-0.438-0.543-2.022,2.068-3.446
			c2.611-1.423,6.537-2.973,6.537-2.973S417.98,215.096,419.344,217.825"/>
		<path fill="#FFFFFF" d="M416.168,368.505c-0.408-1.684-4.037-3.844-6.303-4.951c-3.563-1.738-5.418-1.865-7.582-0.764
			c-2.119,1.078-7.26,9.281-7.26,9.281c-3.455,5.898-4.818,8.639-4.695,10.758s3.037,6.891,9.189,8.762
			c5.58,1.699,8.1-2.498,8.951-3.75c1.004-1.479,5.646-9.141,7.283-11.994C417.387,372.995,416.578,370.19,416.168,368.505
			 M410.852,377.226c-1.57,2.479-4.236,7.221-4.936,7.586c-0.697,0.367-2.381,0.754-3.879-0.063
			c-1.498-0.818-5.139-3.625-5.582-4.051c-0.369-0.355-1.1-2.164-0.43-3.869c0,0,4.51-7.283,4.93-7.432
			c0.42-0.15,1.451-1.512,4.02-0.012s5.924,4.061,5.924,4.061S412.482,374.647,410.852,377.226"/>
		<path fill="#FFFFFF" d="M152.025,333.199c-1.642-0.556-6.189,1.435-8.337,2.757c-3.375,2.078-4.846,3.33-5.074,5.748
			c-0.223,2.367,3.954,11.099,3.954,11.099c3.134,6.076,4.72,8.694,6.576,9.726c1.856,1.029,7.445,1.123,12.319-3.073
			c4.422-3.807,2.224-8.178,1.622-9.569c-0.711-1.64-4.698-9.661-6.233-12.569C155.317,334.407,153.667,333.754,152.025,333.199
			 M155.393,342.193c1.254,2.652,3.832,7.441,3.768,8.228c-0.064,0.785-0.64,2.415-2.13,3.243c-1.491,0.828-5.811,2.4-6.408,2.548
			c-0.498,0.122-2.417-0.228-3.499-1.708c0,0-3.739-7.707-3.64-8.142c0.098-0.436-0.499-2.033,2.142-3.4
			c2.642-1.367,6.601-2.832,6.601-2.832S154.088,339.435,155.393,342.193"/>
		<path fill="#FFFFFF" d="M256.264,428.005c-1.232,1.219-1.491,6.74-1.272,9.254c0.344,3.947,0.805,5.824,2.863,7.109
			c2.017,1.264,11.695,1.441,11.695,1.441c6.836-0.076,9.887-0.32,11.64-1.518s4.341-6.717,2.776-12.953
			c-1.42-5.66-6.314-5.656-7.828-5.74c-1.784-0.1-10.742-0.131-14.03-0.063S257.497,426.786,256.264,428.005 M265.814,429.026
			c2.933,0.068,8.37-0.09,9.044,0.32c0.673,0.408,1.872,1.654,1.944,3.357s-0.458,6.836-0.595,7.434
			c-0.114,0.5-1.287,2.059-3.095,2.363c0,0-8.565-0.113-8.91-0.396c-0.344-0.283-2.041-0.465-2.079-3.439
			c-0.037-2.975,0.428-7.732,0.428-7.732S262.763,428.956,265.814,429.026"/>
		<polygon fill="#FFFFFF" points="393.068,204.519 397.076,210.713 413.928,199.873 409.463,192.677 401.629,188.214 
			401.629,193.042 406.838,195.896 		"/>
		<path fill="#FFFFFF" d="M404.803,354.78l13.029-23.289c0,0,5.412,2.892,6.006,3.781c0.592,0.89,1.199,2.468,0.314,5.271
			c-0.479,1.527-4.484,10.013-5.113,12.382c-0.631,2.37,2.322,3.21,2.891,2.966c0.568-0.243,0.992-0.093,2.4-1.724
			s3.605-6.209,4.051-7.247c0.443-1.038,0.074-2.595-2.299-3.633l3.41-6.154c0,0,3.5,2.066,3.723,3.921
			c0.221,1.853-0.5,5.078-1.834,7.896s-6.465,11.227-8.32,12.34c-1.852,1.111-4.689,0.979-6.248,0.09
			c-1.557-0.891-4.596-3.783-1.928-9.862c2.67-6.079,4.969-9.046,4.227-10.974c-0.74-1.927-1.705-1.631-1.705-1.631l-9.342,17.721
			L404.803,354.78z"/>
		<path fill="#FFFFFF" d="M171.5,371.653l3.737-2.609l-4.16-6.133l-3.243,2.045l-2.468-3.736l-3.454,2.256l2.256,3.666
			l-10.082,6.205l6.133,9.658l17.173,6.998l3.626-2.557L171.5,371.653z M160.714,377.999l7.403-4.795l6.768,10.928L160.714,377.999z
			"/>
		<path fill="#FFFFFF" d="M309.253,432.565c0,0,0.664-3.5-2.413-3.5h-8.928c0,0-2.534,0.121-2.534,3.018
			c0,2.412,1.448,2.412,2.353,2.412h7.419v3.197h-7.239c0,0-2.262,0-2.262,2.264c0,2.262,1.116,3.045,2.202,3.045h8.988
			c0,0,2.715,0.363,2.715-3.861c0-0.059,5.973,0,5.973,0v3.137c0,1.75-1.629,3.861-6.576,3.861H295.68c0,0-6.334-0.029-6.334-5.369
			c0-4.162,3.68-4.223,3.68-4.223s-4.645-0.844-4.645-4.645c0,0-0.966-5.91,8.324-5.91c7.993,0,14.177,0.059,14.177,0.059
			s5.007-0.232,5.007,3.379c0,1.266,0.061,3.137,0.061,3.137H309.253z"/>
		<polygon fill="#FFFFFF" points="269.362,132.994 302.922,132.994 286.283,156.121 		"/>
		
			<rect x="356.647" y="154.419" transform="matrix(0.866 0.5 -0.5 0.866 130.0966 -157.447)" fill="#FFFFFF" width="4.434" height="19.268"/>
		
			<rect x="210.459" y="407.072" transform="matrix(0.8661 0.4999 -0.4999 0.8661 236.8079 -50.5118)" fill="#FFFFFF" width="4.434" height="19.267"/>
		
			<rect x="211.035" y="154.088" transform="matrix(0.8673 -0.4977 0.4977 0.8673 -53.1967 127.8543)" fill="#FFFFFF" width="4.434" height="19.267"/>
		
			<rect x="356.071" y="407.403" transform="matrix(0.8673 -0.4978 0.4978 0.8673 -160.043 233.6707)" fill="#FFFFFF" width="4.434" height="19.269"/>
		
			<rect x="137.604" y="281.119" transform="matrix(-0.0036 -1 1 -0.0036 -150.4212 431.6302)" fill="#FFFFFF" width="4.435" height="19.268"/>
		
			<rect x="429.502" y="280.371" transform="matrix(-0.0035 -1 1 -0.0035 143.2367 722.7435)" fill="#FFFFFF" width="4.434" height="19.27"/>
		<path fill="#FFFFFF" d="M300.976,154.292l1.087-10.001c-0.281-0.024-0.561-0.054-0.842-0.075l-1.088,10.001
			C300.414,154.238,300.695,154.269,300.976,154.292"/>
		<path fill="#FFFFFF" d="M315.559,156.325l2.155-9.829c-0.276-0.056-0.554-0.106-0.831-0.159l-2.156,9.829
			C315.004,156.219,315.281,156.27,315.559,156.325"/>
		<path fill="#FFFFFF" d="M329.643,159.923l3.189-9.542c-0.27-0.085-0.535-0.176-0.805-0.26l-3.189,9.547
			C329.105,159.751,329.375,159.838,329.643,159.923"/>
		<path fill="#FFFFFF" d="M343.113,165.015l4.172-9.155c-0.256-0.113-0.516-0.227-0.773-0.339l-4.172,9.155
			C342.598,164.788,342.855,164.9,343.113,165.015"/>
		<path fill="#FFFFFF" d="M367.771,179.3l5.961-8.102c-0.229-0.167-0.457-0.333-0.686-0.498l-5.961,8.101
			C367.316,178.967,367.543,179.133,367.771,179.3"/>
		<path fill="#FFFFFF" d="M378.748,188.305l6.754-7.452c-0.207-0.19-0.416-0.38-0.625-0.568l-6.756,7.452
			C378.33,187.925,378.539,188.115,378.748,188.305"/>
		<path fill="#FFFFFF" d="M388.68,198.429l7.477-6.728c-0.188-0.212-0.373-0.423-0.563-0.633l-7.477,6.728
			C388.307,198.006,388.492,198.217,388.68,198.429"/>
		<path fill="#FFFFFF" d="M416.115,247.962l9.553-3.169c-0.08-0.271-0.158-0.542-0.24-0.812l-9.553,3.17
			C415.955,247.42,416.035,247.691,416.115,247.962"/>
		<path fill="#FFFFFF" d="M419.461,262.053l9.832-2.142c-0.051-0.278-0.107-0.554-0.158-0.831l-9.832,2.142
			C419.354,261.499,419.41,261.775,419.461,262.053"/>
		<path fill="#FFFFFF" d="M421.225,276.598l10.01-1.081c-0.02-0.281-0.033-0.563-0.053-0.845l-10.012,1.081
			C421.191,276.034,421.205,276.317,421.225,276.598"/>
		<path fill="none" stroke="#FFFFFF" stroke-miterlimit="10" d="M431.244,211.96c-9.965-19.364-26.424-37.716-26.424-37.716
			s-8.051-6.436-20.348-14.312l4.203-7.168c0.783-1.334,0.33-3.066-1.004-3.85l-26.447-15.506c-1.334-0.782-3.066-0.33-3.85,1.004
			l-4.537,7.74c-13.207-6.715-22.576-10.85-22.576-10.85v-0.001c0,0-10.16-2.257-43.627-2.257c-33.466,0-41.665,2.257-41.665,2.257
			s-8.859,3.91-21.492,10.302l-4.413-7.671c-0.771-1.341-2.5-1.808-3.841-1.036l-26.575,15.287c-1.341,0.771-1.807,2.5-1.035,3.841
			l4.174,7.256c-12.866,8.169-21.359,14.962-21.359,14.962s-16.437,18.352-26.401,37.717c-9.965,19.365-16.921,36.443-16.921,36.443
			v23.946h-9.412c-1.547,0-2.813,1.266-2.813,2.813v30.658c0,1.547,1.266,2.813,2.813,2.813h9.412v25.063
			c0,0,5.076,12.505,17.485,34.502c12.409,21.998,25.837,40.379,25.837,40.379s8.362,7.152,22.732,16.445l-3.038,5.281
			c-0.772,1.342-0.305,3.068,1.035,3.84l26.575,15.287c1.341,0.771,3.07,0.305,3.841-1.035l3.148-5.473
			c11.807,5.889,20.248,9.318,20.248,9.318h85.189h0.098c0,0,10.881-4.422,25.221-11.844l4.408,7.518
			c0.783,1.334,2.514,1.787,3.848,1.004l26.449-15.506c1.334-0.783,1.785-2.514,1.004-3.85l-4.465-7.615
			c11.504-7.75,18.076-13.369,18.076-13.369s13.475-18.383,25.883-40.381c12.41-21.997,17.533-34.502,17.533-34.502v-85.292
			C448.213,248.404,441.209,231.325,431.244,211.96z"/>
	</g>
</g>
</svg>
